{"glyphs":{"0":{"ha":976,"x_min":0,"x_max":0,"o":"m 489 981 b 918 488 764 981 918 804 b 489 -7 918 169 764 -7 b 57 488 211 -7 57 169 b 489 981 57 804 211 981 m 489 800 b 311 488 364 800 311 710 b 489 174 311 265 364 174 b 665 488 611 174 665 265 b 489 800 665 710 611 800 "},"1":{"ha":572,"x_min":0,"x_max":0,"o":"m 189 0 l 189 775 l 10 775 l 10 974 l 436 974 l 436 0 "},"2":{"ha":833,"x_min":0,"x_max":0,"o":"m 425 983 b 757 729 618 983 757 883 b 574 406 757 624 679 514 l 376 196 l 786 196 l 786 0 l 58 0 l 58 160 l 406 528 b 499 694 460 585 499 650 b 389 783 499 750 458 783 b 124 660 310 783 213 736 l 31 838 b 425 983 153 929 286 983 "},"3":{"ha":775,"x_min":0,"x_max":0,"o":"m 490 571 b 732 306 632 549 732 456 b 360 -11 732 119 586 -11 b -3 107 226 -11 86 36 l 97 294 b 340 176 169 217 253 176 b 490 303 438 176 490 224 b 339 425 490 385 436 425 l 183 425 l 183 557 l 400 782 l 46 782 l 46 971 l 688 971 l 688 831 l 444 578 "},"4":{"ha":879,"x_min":0,"x_max":0,"o":"m 499 401 l 499 610 l 728 610 l 728 401 l 860 401 l 860 214 l 728 214 l 728 0 l 499 0 l 499 214 l 38 214 l 38 379 l 344 972 l 582 972 l 293 401 "},"5":{"ha":826,"x_min":0,"x_max":0,"o":"m 326 776 l 326 619 l 414 619 b 782 326 636 619 782 500 b 394 -10 782 122 629 -10 b 19 111 267 -10 121 39 l 118 299 b 365 179 190 221 278 179 b 517 310 461 179 517 226 b 365 431 517 386 461 431 b 101 424 315 431 161 428 l 101 972 l 739 972 l 739 776 "},"6":{"ha":878,"x_min":0,"x_max":0,"o":"m 507 983 b 821 903 615 983 739 953 l 726 731 b 522 793 671 771 597 793 b 294 535 367 793 292 694 b 526 639 340 600 418 639 b 840 325 718 639 840 514 b 476 -11 840 119 696 -11 b 57 472 215 -11 57 174 b 507 983 57 782 233 983 m 471 458 b 321 322 375 458 321 401 b 467 186 321 250 367 186 b 611 326 556 186 611 236 b 471 458 611 410 560 458 "},"7":{"ha":825,"x_min":0,"x_max":0,"o":"m 444 0 l 183 0 l 531 776 l 263 776 l 263 640 l 46 640 l 46 972 l 803 972 l 803 804 "},"8":{"ha":892,"x_min":0,"x_max":0,"o":"m 444 983 b 793 722 658 983 793 882 b 671 521 793 638 747 563 b 844 275 778 476 844 383 b 446 -11 844 100 689 -11 b 47 271 203 -11 47 99 b 232 521 47 382 119 476 b 97 729 150 567 97 644 b 444 983 97 885 233 983 m 446 821 b 306 708 356 821 306 781 b 446 600 306 639 356 600 b 586 708 536 600 586 639 b 446 821 586 781 536 821 m 446 422 b 281 296 339 422 281 376 b 446 168 281 214 339 168 b 613 296 553 168 613 213 b 446 422 613 376 553 422 "},"9":{"ha":878,"x_min":0,"x_max":0,"o":"m 375 -10 b 61 71 267 -10 143 21 l 156 243 b 360 181 211 203 285 181 b 588 439 515 181 590 279 b 356 335 542 374 464 335 b 42 649 164 335 42 460 b 406 985 42 854 186 985 b 825 501 667 985 825 800 b 375 -10 825 192 649 -10 m 411 515 b 561 651 507 515 561 572 b 415 788 561 724 515 788 b 271 647 326 788 271 738 b 411 515 271 564 322 515 "},"A":{"ha":1069,"x_min":0,"x_max":0,"o":"m 318 179 l 247 0 l -7 0 l 413 972 l 667 972 l 1076 0 l 813 0 l 743 179 m 532 726 l 390 367 l 671 367 "},"Á":{"ha":1069,"x_min":0,"x_max":0,"o":"m 415 1057 l 563 1290 l 779 1214 l 599 1057 m 318 179 l 247 0 l -7 0 l 413 972 l 667 972 l 1076 0 l 813 0 l 743 179 m 532 726 l 390 367 l 671 367 "},"Ă":{"ha":1069,"x_min":0,"x_max":0,"o":"m 535 1058 b 307 1278 404 1058 314 1144 l 457 1278 b 535 1197 461 1231 492 1197 b 613 1278 578 1197 608 1231 l 763 1278 b 535 1058 756 1144 665 1058 m 318 179 l 247 0 l -7 0 l 413 972 l 667 972 l 1076 0 l 813 0 l 743 179 m 532 726 l 390 367 l 671 367 "},"Â":{"ha":1069,"x_min":0,"x_max":0,"o":"m 282 1071 l 439 1281 l 631 1281 l 788 1071 l 615 1071 l 535 1189 l 454 1071 m 318 179 l 247 0 l -7 0 l 413 972 l 667 972 l 1076 0 l 813 0 l 743 179 m 532 726 l 390 367 l 671 367 "},"Ä":{"ha":1069,"x_min":0,"x_max":0,"o":"m 401 1076 b 293 1183 339 1076 293 1121 b 401 1292 293 1247 339 1292 b 510 1183 464 1292 510 1247 b 401 1076 510 1121 464 1076 m 669 1076 b 561 1183 607 1076 561 1121 b 669 1292 561 1247 607 1292 b 778 1183 732 1292 778 1247 b 669 1076 778 1121 732 1076 m 318 179 l 247 0 l -7 0 l 413 972 l 667 972 l 1076 0 l 813 0 l 743 179 m 532 726 l 390 367 l 671 367 "},"À":{"ha":1069,"x_min":0,"x_max":0,"o":"m 293 1214 l 510 1290 l 657 1057 l 474 1057 m 318 179 l 247 0 l -7 0 l 413 972 l 667 972 l 1076 0 l 813 0 l 743 179 m 532 726 l 390 367 l 671 367 "},"Ā":{"ha":1069,"x_min":0,"x_max":0,"o":"m 342 1101 l 342 1263 l 728 1263 l 728 1101 m 318 179 l 247 0 l -7 0 l 413 972 l 667 972 l 1076 0 l 813 0 l 743 179 m 532 726 l 390 367 l 671 367 "},"Ą":{"ha":1069,"x_min":0,"x_max":0,"o":"m 1006 0 b 946 -128 967 -57 946 -101 b 975 -161 946 -150 957 -161 b 1035 -118 997 -161 1017 -144 l 1096 -189 b 946 -282 1061 -249 1007 -282 b 824 -167 890 -282 824 -253 b 890 0 824 -112 851 -58 l 814 0 l 743 179 l 319 179 l 247 0 l -7 0 l 413 974 l 667 974 l 1076 0 m 674 367 l 533 726 l 390 367 "},"Å":{"ha":1069,"x_min":0,"x_max":0,"o":"m 318 179 l 247 0 l -7 0 l 403 951 b 361 1067 376 982 361 1022 b 539 1243 361 1164 440 1243 b 718 1067 639 1243 718 1164 b 675 951 718 1022 703 982 l 1076 0 l 813 0 l 743 179 m 539 1142 b 464 1067 497 1142 464 1108 b 539 992 464 1025 497 992 b 615 1067 582 992 615 1025 b 539 1142 615 1108 582 1142 m 532 726 l 390 367 l 671 367 "},"Ã":{"ha":1069,"x_min":0,"x_max":0,"o":"m 476 1146 b 435 1086 449 1146 435 1126 l 288 1086 b 433 1303 288 1232 336 1303 b 593 1238 515 1303 554 1238 b 636 1296 622 1238 636 1257 l 782 1296 b 638 1081 782 1150 735 1081 b 476 1146 553 1081 517 1146 m 318 179 l 247 0 l -7 0 l 413 972 l 667 972 l 1076 0 l 813 0 l 743 179 m 532 726 l 390 367 l 671 367 "},"Æ":{"ha":1531,"x_min":0,"x_max":0,"o":"m 1468 0 l 692 0 l 692 206 l 358 206 l 250 0 l -7 0 l 546 972 l 692 972 l 692 974 l 1453 974 l 1453 778 l 938 778 l 938 585 l 1403 585 l 1403 392 l 938 392 l 938 194 l 1468 194 m 692 783 l 664 783 l 453 383 l 692 383 "},"B":{"ha":993,"x_min":0,"x_max":0,"o":"m 557 972 b 914 729 775 972 914 878 b 747 515 914 626 850 544 b 947 269 869 492 947 396 b 574 0 947 104 803 0 l 97 0 l 97 972 m 343 583 l 543 583 b 661 685 615 583 661 622 b 543 783 661 747 615 783 l 343 783 m 343 190 l 543 190 b 692 300 635 190 692 231 b 543 406 692 365 635 406 l 343 406 "},"C":{"ha":961,"x_min":0,"x_max":0,"o":"m 553 981 b 944 817 697 981 847 917 l 801 647 b 557 774 738 725 643 774 b 286 492 403 774 286 651 b 557 206 286 329 403 206 b 801 319 639 206 733 250 l 946 167 b 544 -11 842 60 688 -11 b 33 489 251 -11 33 204 b 553 981 33 769 257 981 "},"Ć":{"ha":961,"x_min":0,"x_max":0,"o":"m 596 1057 l 413 1057 l 560 1290 l 776 1214 m 553 981 b 944 817 697 981 847 917 l 801 647 b 557 774 738 725 643 774 b 286 492 403 774 286 651 b 557 206 286 329 403 206 b 801 319 639 206 733 250 l 946 167 b 544 -11 842 60 688 -11 b 33 489 251 -11 33 204 b 553 981 33 769 257 981 "},"Č":{"ha":961,"x_min":0,"x_max":0,"o":"m 442 1281 l 526 1153 l 611 1281 l 799 1281 l 631 1053 l 422 1053 l 254 1281 m 553 981 b 944 817 697 981 847 917 l 801 647 b 557 774 738 725 643 774 b 286 492 403 774 286 651 b 557 206 286 329 403 206 b 801 319 639 206 733 250 l 946 167 b 544 -11 842 60 688 -11 b 33 489 251 -11 33 204 b 553 981 33 769 257 981 "},"Ç":{"ha":961,"x_min":0,"x_max":0,"o":"m 946 167 b 613 -6 858 76 735 13 l 579 -71 b 674 -183 636 -86 674 -126 b 500 -326 674 -271 601 -326 b 368 -283 457 -326 407 -310 l 413 -185 b 481 -212 431 -201 457 -212 b 539 -161 517 -212 539 -189 b 475 -111 539 -133 517 -111 b 425 -117 461 -111 442 -114 l 478 -7 b 33 489 219 22 33 226 b 553 981 33 769 257 981 b 944 817 697 981 847 917 l 801 647 b 557 774 738 725 643 774 b 286 492 403 774 286 651 b 557 206 286 329 403 206 b 801 319 639 206 733 250 "},"D":{"ha":1065,"x_min":0,"x_max":0,"o":"m 515 972 b 1032 486 821 972 1032 775 b 506 0 1032 199 818 0 l 97 0 l 97 972 m 344 197 l 521 197 b 781 485 672 197 781 314 b 510 775 781 657 667 775 l 344 775 "},"Ð":{"ha":1110,"x_min":0,"x_max":0,"o":"m 560 972 b 1076 486 865 972 1076 775 b 550 0 1076 199 863 0 l 142 0 l 142 422 l 0 422 l 0 553 l 142 553 l 142 972 m 565 197 b 825 485 717 197 825 314 b 554 775 825 657 711 775 l 388 775 l 388 553 l 608 553 l 608 422 l 388 422 l 388 197 "},"Ď":{"ha":1065,"x_min":0,"x_max":0,"o":"m 407 1281 l 492 1153 l 576 1281 l 764 1281 l 596 1053 l 388 1053 l 219 1281 m 515 972 b 1032 486 821 972 1032 775 b 506 0 1032 199 818 0 l 97 0 l 97 972 m 344 197 l 521 197 b 781 485 672 197 781 314 b 510 775 781 657 667 775 l 344 775 "},"Đ":{"ha":1065,"x_min":0,"x_max":0,"o":"m 304 1101 l 304 1263 l 690 1263 l 690 1101 m 515 972 b 1032 486 821 972 1032 775 b 506 0 1032 199 818 0 l 97 0 l 97 972 m 344 197 l 521 197 b 781 485 672 197 781 314 b 510 775 781 657 667 775 l 344 775 "},"E":{"ha":936,"x_min":0,"x_max":0,"o":"m 344 778 l 344 585 l 808 585 l 808 390 l 344 390 l 344 194 l 874 194 l 874 0 l 97 0 l 97 972 l 858 972 l 858 778 "},"É":{"ha":936,"x_min":0,"x_max":0,"o":"m 544 1057 l 361 1057 l 508 1290 l 725 1214 m 344 778 l 344 585 l 808 585 l 808 390 l 344 390 l 344 194 l 874 194 l 874 0 l 97 0 l 97 972 l 858 972 l 858 778 "},"Ě":{"ha":936,"x_min":0,"x_max":0,"o":"m 390 1281 l 475 1153 l 560 1281 l 747 1281 l 579 1053 l 371 1053 l 203 1281 m 344 778 l 344 585 l 808 585 l 808 390 l 344 390 l 344 194 l 874 194 l 874 0 l 97 0 l 97 972 l 858 972 l 858 778 "},"Ê":{"ha":936,"x_min":0,"x_max":0,"o":"m 561 1071 l 481 1189 l 400 1071 l 228 1071 l 385 1281 l 576 1281 l 733 1071 m 344 778 l 344 585 l 808 585 l 808 390 l 344 390 l 344 194 l 874 194 l 874 0 l 97 0 l 97 972 l 858 972 l 858 778 "},"Ë":{"ha":936,"x_min":0,"x_max":0,"o":"m 347 1292 b 456 1183 410 1292 456 1247 b 347 1076 456 1121 410 1076 b 239 1183 285 1076 239 1121 b 347 1292 239 1247 285 1292 m 615 1292 b 724 1183 678 1292 724 1247 b 615 1076 724 1121 678 1076 b 507 1183 553 1076 507 1121 b 615 1292 507 1247 553 1292 m 344 778 l 344 585 l 808 585 l 808 390 l 344 390 l 344 194 l 874 194 l 874 0 l 97 0 l 97 972 l 858 972 l 858 778 "},"Ė":{"ha":936,"x_min":0,"x_max":0,"o":"m 481 1314 b 607 1188 554 1314 607 1261 b 481 1060 607 1113 554 1060 b 354 1188 407 1060 354 1113 b 481 1314 354 1261 407 1314 m 344 778 l 344 585 l 808 585 l 808 390 l 344 390 l 344 194 l 874 194 l 874 0 l 97 0 l 97 972 l 858 972 l 858 778 "},"È":{"ha":936,"x_min":0,"x_max":0,"o":"m 419 1057 l 239 1214 l 456 1290 l 603 1057 m 344 778 l 344 585 l 808 585 l 808 390 l 344 390 l 344 194 l 874 194 l 874 0 l 97 0 l 97 972 l 858 972 l 858 778 "},"Ē":{"ha":936,"x_min":0,"x_max":0,"o":"m 288 1101 l 288 1263 l 674 1263 l 674 1101 m 344 778 l 344 585 l 808 585 l 808 390 l 344 390 l 344 194 l 874 194 l 874 0 l 97 0 l 97 972 l 858 972 l 858 778 "},"Ę":{"ha":942,"x_min":0,"x_max":0,"o":"m 344 783 l 344 585 l 815 585 l 815 396 l 344 396 l 344 189 l 879 189 l 879 0 l 781 0 b 721 -128 740 -58 721 -101 b 750 -161 721 -150 733 -161 b 810 -118 772 -161 792 -144 l 872 -189 b 721 -282 836 -249 782 -282 b 600 -167 665 -282 600 -253 b 665 0 600 -112 625 -60 l 97 0 l 97 972 l 865 972 l 865 783 "},"F":{"ha":839,"x_min":0,"x_max":0,"o":"m 344 778 l 344 553 l 781 553 l 781 358 l 344 358 l 344 0 l 97 0 l 97 972 l 818 972 l 818 778 "},"G":{"ha":1032,"x_min":0,"x_max":0,"o":"m 957 494 l 957 115 b 553 -11 853 42 689 -11 b 33 486 257 -11 33 203 b 569 981 33 768 263 981 b 967 836 714 981 867 925 l 828 668 b 568 774 757 733 658 774 b 286 486 408 774 286 649 b 571 196 286 321 410 196 b 743 243 621 196 685 214 l 743 494 "},"Ğ":{"ha":1032,"x_min":0,"x_max":0,"o":"m 544 1058 b 317 1278 414 1058 324 1144 l 467 1278 b 544 1197 471 1231 501 1197 b 622 1278 588 1197 618 1231 l 772 1278 b 544 1058 765 1144 675 1058 m 957 494 l 957 115 b 553 -11 853 42 689 -11 b 33 486 257 -11 33 203 b 569 981 33 768 263 981 b 967 836 714 981 867 925 l 828 668 b 568 774 757 733 658 774 b 286 486 408 774 286 649 b 571 196 286 321 410 196 b 743 243 621 196 685 214 l 743 494 "},"Ģ":{"ha":1032,"x_min":0,"x_max":0,"o":"m 957 494 l 957 115 b 553 -11 853 42 689 -11 b 33 486 257 -11 33 203 b 569 981 33 768 263 981 b 967 836 714 981 867 925 l 828 668 b 568 774 757 733 658 774 b 286 486 408 774 286 649 b 571 196 286 321 410 196 b 743 243 621 196 685 214 l 743 494 m 553 -57 b 667 -171 614 -57 667 -97 b 636 -262 667 -206 654 -236 l 535 -410 l 421 -410 l 483 -262 b 438 -172 451 -240 438 -208 b 553 -57 438 -104 486 -57 "},"H":{"ha":1092,"x_min":0,"x_max":0,"o":"m 747 0 l 747 378 l 344 378 l 344 0 l 97 0 l 97 972 l 344 972 l 344 572 l 747 572 l 747 972 l 994 972 l 994 0 "},"I":{"ha":442,"x_min":0,"x_max":0,"o":"m 97 0 l 97 972 l 344 972 l 344 0 "},"Ĳ":{"ha":1185,"x_min":0,"x_max":0,"o":"m 1106 315 b 769 -11 1106 108 976 -11 b 435 144 632 -11 521 46 l 549 310 b 753 201 618 238 696 201 b 857 321 818 201 857 242 l 857 774 l 524 774 l 524 974 l 1106 974 m 97 0 l 97 972 l 344 972 l 344 0 "},"Í":{"ha":442,"x_min":0,"x_max":0,"o":"m 283 1057 l 100 1057 l 247 1290 l 464 1214 m 97 0 l 97 972 l 344 972 l 344 0 "},"Î":{"ha":442,"x_min":0,"x_max":0,"o":"m 301 1071 l 221 1189 l 140 1071 l -32 1071 l 125 1281 l 317 1281 l 474 1071 m 97 0 l 97 972 l 344 972 l 344 0 "},"Ï":{"ha":442,"x_min":0,"x_max":0,"o":"m 88 1292 b 196 1183 150 1292 196 1247 b 88 1076 196 1121 150 1076 b -21 1183 25 1076 -21 1121 b 88 1292 -21 1247 25 1292 m 356 1292 b 464 1183 418 1292 464 1247 b 356 1076 464 1121 418 1076 b 247 1183 293 1076 247 1121 b 356 1292 247 1247 293 1292 m 97 0 l 97 972 l 344 972 l 344 0 "},"İ":{"ha":442,"x_min":0,"x_max":0,"o":"m 221 1314 b 347 1188 294 1314 347 1261 b 221 1060 347 1113 294 1060 b 94 1188 147 1060 94 1113 b 221 1314 94 1261 147 1314 m 97 0 l 97 972 l 344 972 l 344 0 "},"Ì":{"ha":442,"x_min":0,"x_max":0,"o":"m 160 1057 l -21 1214 l 196 1290 l 343 1057 m 97 0 l 97 972 l 344 972 l 344 0 "},"Ī":{"ha":442,"x_min":0,"x_max":0,"o":"m 28 1101 l 28 1263 l 414 1263 l 414 1101 m 97 0 l 97 972 l 344 972 l 344 0 "},"Į":{"ha":442,"x_min":0,"x_max":0,"o":"m 382 -189 b 232 -282 347 -249 292 -282 b 110 -167 176 -282 110 -253 b 175 0 110 -112 136 -58 l 97 0 l 97 974 l 344 974 l 344 0 l 292 0 b 231 -128 253 -57 231 -101 b 260 -161 231 -150 243 -161 b 321 -118 282 -161 303 -144 "},"Ĩ":{"ha":442,"x_min":0,"x_max":0,"o":"m 119 1303 b 279 1238 201 1303 240 1238 b 322 1296 308 1238 322 1257 l 468 1296 b 324 1081 468 1150 421 1081 b 163 1146 239 1081 203 1146 b 121 1086 135 1146 121 1126 l -26 1086 b 119 1303 -26 1232 22 1303 m 97 0 l 97 972 l 344 972 l 344 0 "},"J":{"ha":744,"x_min":0,"x_max":0,"o":"m 664 315 b 328 -11 664 108 535 -11 b -7 144 190 -11 79 46 l 107 310 b 311 201 176 238 254 201 b 415 321 376 201 415 242 l 415 774 l 82 774 l 82 974 l 664 974 "},"Ĵ":{"ha":744,"x_min":0,"x_max":0,"o":"m 450 1071 l 369 1189 l 289 1071 l 117 1071 l 274 1281 l 465 1281 l 622 1071 m 664 315 b 328 -11 664 108 535 -11 b -7 144 190 -11 79 46 l 107 310 b 311 201 176 238 254 201 b 415 321 376 201 415 242 l 415 774 l 82 774 l 82 974 l 664 974 "},"K":{"ha":1038,"x_min":0,"x_max":0,"o":"m 474 382 l 344 239 l 344 0 l 97 0 l 97 972 l 344 972 l 344 551 l 717 972 l 1003 972 l 642 569 l 1026 0 l 731 0 "},"Ķ":{"ha":1038,"x_min":0,"x_max":0,"o":"m 731 0 l 474 382 l 344 239 l 344 0 l 97 0 l 97 972 l 344 972 l 344 551 l 717 972 l 1003 972 l 642 569 l 1026 0 m 514 -57 b 628 -171 575 -57 628 -97 b 597 -262 628 -206 615 -236 l 496 -410 l 382 -410 l 444 -262 b 399 -172 413 -240 399 -208 b 514 -57 399 -104 447 -57 "},"L":{"ha":778,"x_min":0,"x_max":0,"o":"m 757 207 l 757 0 l 97 0 l 97 972 l 344 972 l 344 207 "},"Ĺ":{"ha":778,"x_min":0,"x_max":0,"o":"m 279 1057 l 96 1057 l 243 1290 l 460 1214 m 757 207 l 757 0 l 97 0 l 97 972 l 344 972 l 344 207 "},"Ľ":{"ha":778,"x_min":0,"x_max":0,"o":"m 757 0 l 97 0 l 97 972 l 344 972 l 344 207 l 757 207 m 557 725 b 511 815 525 746 511 779 b 626 929 511 882 560 929 b 740 815 688 929 740 889 b 710 724 740 781 728 751 l 608 576 l 494 576 "},"Ļ":{"ha":778,"x_min":0,"x_max":0,"o":"m 757 0 l 97 0 l 97 972 l 344 972 l 344 207 l 757 207 m 413 -57 b 526 -171 474 -57 526 -97 b 496 -262 526 -206 514 -236 l 394 -410 l 281 -410 l 343 -262 b 297 -172 311 -240 297 -208 b 413 -57 297 -104 346 -57 "},"Ŀ":{"ha":778,"x_min":0,"x_max":0,"o":"m 757 207 l 757 0 l 97 0 l 97 972 l 344 972 l 344 207 m 574 781 b 689 667 640 781 689 733 b 574 553 689 600 640 553 b 461 667 508 553 461 600 b 574 781 461 733 508 781 "},"Ł":{"ha":806,"x_min":0,"x_max":0,"o":"m 783 0 l 124 0 l 124 463 l 22 433 l -18 578 l 124 619 l 124 972 l 371 972 l 371 690 l 571 749 l 611 603 l 371 533 l 371 207 l 783 207 "},"M":{"ha":1264,"x_min":0,"x_max":0,"o":"m 947 0 l 946 632 l 713 97 l 551 97 l 318 632 l 318 0 l 97 0 l 97 974 l 368 974 l 632 394 l 896 974 l 1165 974 l 1165 0 "},"N":{"ha":1092,"x_min":0,"x_max":0,"o":"m 776 0 l 329 599 l 329 0 l 97 0 l 97 972 l 315 972 l 764 372 l 764 972 l 994 972 l 994 0 "},"Ń":{"ha":1092,"x_min":0,"x_max":0,"o":"m 610 1057 l 426 1057 l 574 1290 l 790 1214 m 776 0 l 329 599 l 329 0 l 97 0 l 97 972 l 315 972 l 764 372 l 764 972 l 994 972 l 994 0 "},"Ň":{"ha":1092,"x_min":0,"x_max":0,"o":"m 456 1281 l 540 1153 l 625 1281 l 813 1281 l 644 1053 l 436 1053 l 268 1281 m 776 0 l 329 599 l 329 0 l 97 0 l 97 972 l 315 972 l 764 372 l 764 972 l 994 972 l 994 0 "},"Ņ":{"ha":1092,"x_min":0,"x_max":0,"o":"m 994 0 l 776 0 l 329 599 l 329 0 l 97 0 l 97 972 l 315 972 l 764 372 l 764 972 l 994 972 m 556 -57 b 669 -171 617 -57 669 -97 b 639 -262 669 -206 657 -236 l 538 -410 l 424 -410 l 486 -262 b 440 -172 454 -240 440 -208 b 556 -57 440 -104 489 -57 "},"Ñ":{"ha":1092,"x_min":0,"x_max":0,"o":"m 444 1303 b 604 1238 526 1303 565 1238 b 647 1296 633 1238 647 1257 l 793 1296 b 649 1081 793 1150 746 1081 b 488 1146 564 1081 528 1146 b 446 1086 460 1146 446 1126 l 299 1086 b 444 1303 299 1232 347 1303 m 776 0 l 329 599 l 329 0 l 97 0 l 97 972 l 315 972 l 764 372 l 764 972 l 994 972 l 994 0 "},"O":{"ha":1118,"x_min":0,"x_max":0,"o":"m 558 981 b 1085 488 860 981 1085 769 b 558 -11 1085 204 860 -11 b 33 488 258 -11 33 203 b 558 981 33 771 258 981 m 561 774 b 286 486 411 774 286 650 b 561 196 286 322 413 196 b 831 486 711 196 831 322 b 561 774 831 650 711 774 "},"Ó":{"ha":1118,"x_min":0,"x_max":0,"o":"m 611 1057 l 428 1057 l 575 1290 l 792 1214 m 558 981 b 1085 488 860 981 1085 769 b 558 -11 1085 204 860 -11 b 33 488 258 -11 33 203 b 558 981 33 771 258 981 m 561 774 b 286 486 411 774 286 650 b 561 196 286 322 413 196 b 831 486 711 196 831 322 b 561 774 831 650 711 774 "},"Ô":{"ha":1118,"x_min":0,"x_max":0,"o":"m 629 1071 l 549 1189 l 468 1071 l 296 1071 l 453 1281 l 644 1281 l 801 1071 m 558 981 b 1085 488 860 981 1085 769 b 558 -11 1085 204 860 -11 b 33 488 258 -11 33 203 b 558 981 33 771 258 981 m 561 774 b 286 486 411 774 286 650 b 561 196 286 322 413 196 b 831 486 711 196 831 322 b 561 774 831 650 711 774 "},"Ö":{"ha":1118,"x_min":0,"x_max":0,"o":"m 415 1292 b 524 1183 478 1292 524 1247 b 415 1076 524 1121 478 1076 b 307 1183 353 1076 307 1121 b 415 1292 307 1247 353 1292 m 683 1292 b 792 1183 746 1292 792 1247 b 683 1076 792 1121 746 1076 b 575 1183 621 1076 575 1121 b 683 1292 575 1247 621 1292 m 558 981 b 1085 488 860 981 1085 769 b 558 -11 1085 204 860 -11 b 33 488 258 -11 33 203 b 558 981 33 771 258 981 m 561 774 b 286 486 411 774 286 650 b 561 196 286 322 413 196 b 831 486 711 196 831 322 b 561 774 831 650 711 774 "},"Ò":{"ha":1118,"x_min":0,"x_max":0,"o":"m 488 1057 l 307 1214 l 524 1290 l 671 1057 m 558 981 b 1085 488 860 981 1085 769 b 558 -11 1085 204 860 -11 b 33 488 258 -11 33 203 b 558 981 33 771 258 981 m 561 774 b 286 486 411 774 286 650 b 561 196 286 322 413 196 b 831 486 711 196 831 322 b 561 774 831 650 711 774 "},"Ő":{"ha":1118,"x_min":0,"x_max":0,"o":"m 482 1056 l 307 1056 l 425 1293 l 607 1226 m 751 1056 l 576 1056 l 694 1293 l 876 1226 m 558 981 b 1085 488 860 981 1085 769 b 558 -11 1085 204 860 -11 b 33 488 258 -11 33 203 b 558 981 33 771 258 981 m 561 774 b 286 486 411 774 286 650 b 561 196 286 322 413 196 b 831 486 711 196 831 322 b 561 774 831 650 711 774 "},"Ō":{"ha":1118,"x_min":0,"x_max":0,"o":"m 356 1101 l 356 1263 l 742 1263 l 742 1101 m 558 981 b 1085 488 860 981 1085 769 b 558 -11 1085 204 860 -11 b 33 488 258 -11 33 203 b 558 981 33 771 258 981 m 561 774 b 286 486 411 774 286 650 b 561 196 286 322 413 196 b 831 486 711 196 831 322 b 561 774 831 650 711 774 "},"Ø":{"ha":1118,"x_min":0,"x_max":0,"o":"m 765 944 b 1085 488 957 872 1085 700 b 558 -11 1085 204 860 -11 b 435 1 515 -11 474 -7 l 379 -157 l 240 -157 l 311 44 b 33 488 143 125 33 289 b 558 981 33 771 258 981 b 638 975 585 981 611 979 l 689 1124 l 828 1124 m 286 486 b 388 261 286 394 326 314 l 567 774 l 561 774 b 286 486 411 774 286 650 m 561 196 b 831 486 711 196 831 322 b 693 739 831 597 776 690 l 506 201 b 561 196 524 199 543 196 "},"Õ":{"ha":1118,"x_min":0,"x_max":0,"o":"m 447 1303 b 607 1238 529 1303 568 1238 b 650 1296 636 1238 650 1257 l 796 1296 b 651 1081 796 1150 749 1081 b 490 1146 567 1081 531 1146 b 449 1086 463 1146 449 1126 l 301 1086 b 447 1303 301 1232 350 1303 m 558 981 b 1085 488 860 981 1085 769 b 558 -11 1085 204 860 -11 b 33 488 258 -11 33 203 b 558 981 33 771 258 981 m 561 774 b 286 486 411 774 286 650 b 561 196 286 322 413 196 b 831 486 711 196 831 322 b 561 774 831 650 711 774 "},"Œ":{"ha":1546,"x_min":0,"x_max":0,"o":"m 1483 0 l 557 0 b 33 485 260 0 33 207 b 557 974 33 763 257 974 l 1469 974 l 1469 778 l 954 778 l 954 585 l 1418 585 l 1418 392 l 954 392 l 954 194 l 1483 194 m 707 769 l 558 769 b 286 483 403 769 286 647 b 558 199 286 321 403 199 l 707 200 "},"P":{"ha":944,"x_min":0,"x_max":0,"o":"m 521 972 b 913 633 769 972 913 850 b 521 274 913 406 769 274 l 344 274 l 344 0 l 97 0 l 97 972 m 344 468 l 508 468 b 679 625 617 468 679 522 b 508 778 679 726 617 778 l 344 778 "},"Þ":{"ha":957,"x_min":0,"x_max":0,"o":"m 514 844 b 925 510 771 844 925 718 b 514 156 925 290 771 156 l 344 156 l 344 0 l 97 0 l 97 972 l 344 972 l 344 844 m 504 344 b 672 503 613 344 672 401 b 504 656 672 600 613 656 l 344 656 l 344 344 "},"Q":{"ha":1125,"x_min":0,"x_max":0,"o":"m 1133 -122 b 851 -229 1058 -189 949 -229 b 539 -11 717 -229 603 -146 b 33 488 249 -1 33 208 b 558 981 33 771 258 981 b 1085 488 860 981 1085 769 b 761 24 1085 272 956 96 b 879 -43 794 -18 835 -43 b 1046 31 924 -43 986 -15 m 286 486 b 561 196 286 322 413 196 b 831 486 711 196 831 322 b 561 774 831 650 711 774 b 286 486 411 774 286 650 "},"R":{"ha":1006,"x_min":0,"x_max":0,"o":"m 539 274 l 532 274 l 344 274 l 344 0 l 97 0 l 97 972 l 532 972 b 936 633 789 972 936 850 b 760 321 936 485 874 378 l 964 0 l 683 0 m 532 468 b 701 625 639 468 701 522 b 532 778 701 726 639 778 l 344 778 l 344 468 "},"Ŕ":{"ha":1006,"x_min":0,"x_max":0,"o":"m 385 1057 l 532 1290 l 749 1214 l 568 1057 m 539 274 l 532 274 l 344 274 l 344 0 l 97 0 l 97 972 l 532 972 b 936 633 789 972 936 850 b 760 321 936 485 874 378 l 964 0 l 683 0 m 532 468 b 701 625 639 468 701 522 b 532 778 701 726 639 778 l 344 778 l 344 468 "},"Ř":{"ha":1006,"x_min":0,"x_max":0,"o":"m 226 1281 l 414 1281 l 499 1153 l 583 1281 l 771 1281 l 603 1053 l 394 1053 m 539 274 l 532 274 l 344 274 l 344 0 l 97 0 l 97 972 l 532 972 b 936 633 789 972 936 850 b 760 321 936 485 874 378 l 964 0 l 683 0 m 532 468 b 701 625 639 468 701 522 b 532 778 701 726 639 778 l 344 778 l 344 468 "},"Ŗ":{"ha":1006,"x_min":0,"x_max":0,"o":"m 683 0 l 539 274 l 532 274 l 344 274 l 344 0 l 97 0 l 97 972 l 532 972 b 936 633 789 972 936 850 b 760 321 936 485 874 378 l 964 0 m 532 468 b 701 625 639 468 701 522 b 532 778 701 726 639 778 l 344 778 l 344 468 m 508 -57 b 622 -171 569 -57 622 -97 b 592 -262 622 -206 610 -236 l 490 -410 l 376 -410 l 439 -262 b 393 -172 407 -240 393 -208 b 508 -57 393 -104 442 -57 "},"S":{"ha":894,"x_min":0,"x_max":0,"o":"m 471 983 b 854 875 611 983 754 940 l 761 682 b 450 783 658 742 529 783 b 343 713 386 783 343 760 b 857 289 343 544 857 640 b 468 -8 857 94 685 -8 b 24 147 306 -8 139 53 l 119 338 b 471 192 219 250 369 192 b 597 276 549 192 597 221 b 83 690 597 449 83 346 b 471 983 83 869 238 983 "},"Ś":{"ha":894,"x_min":0,"x_max":0,"o":"m 535 1057 l 351 1057 l 499 1290 l 715 1214 m 471 983 b 854 875 611 983 754 940 l 761 682 b 450 783 658 742 529 783 b 343 713 386 783 343 760 b 857 289 343 544 857 640 b 468 -8 857 94 685 -8 b 24 147 306 -8 139 53 l 119 338 b 471 192 219 250 369 192 b 597 276 549 192 597 221 b 83 690 597 449 83 346 b 471 983 83 869 238 983 "},"Š":{"ha":894,"x_min":0,"x_max":0,"o":"m 381 1281 l 465 1153 l 550 1281 l 738 1281 l 569 1053 l 361 1053 l 193 1281 m 471 983 b 854 875 611 983 754 940 l 761 682 b 450 783 658 742 529 783 b 343 713 386 783 343 760 b 857 289 343 544 857 640 b 468 -8 857 94 685 -8 b 24 147 306 -8 139 53 l 119 338 b 471 192 219 250 369 192 b 597 276 549 192 597 221 b 83 690 597 449 83 346 b 471 983 83 869 238 983 "},"Ş":{"ha":894,"x_min":0,"x_max":0,"o":"m 857 289 b 553 -3 857 121 728 21 l 518 -71 b 613 -183 575 -86 613 -126 b 439 -326 613 -271 540 -326 b 307 -283 396 -326 346 -310 l 351 -185 b 419 -212 369 -201 396 -212 b 478 -161 456 -212 478 -189 b 414 -111 478 -133 456 -111 b 364 -117 400 -111 381 -114 l 417 -7 b 24 147 271 6 126 63 l 119 338 b 471 192 219 250 369 192 b 597 276 549 192 597 221 b 83 690 597 449 83 346 b 471 983 83 869 238 983 b 854 875 611 983 754 940 l 761 682 b 450 783 658 742 529 783 b 343 713 386 783 343 760 b 857 289 343 544 857 640 "},"Ș":{"ha":894,"x_min":0,"x_max":0,"o":"m 343 713 b 857 289 343 544 857 640 b 468 -8 857 94 685 -8 b 24 147 306 -8 139 53 l 119 338 b 471 192 219 250 369 192 b 597 276 549 192 597 221 b 83 690 597 449 83 346 b 471 983 83 869 238 983 b 854 875 611 983 754 940 l 761 682 b 450 783 658 742 529 783 b 343 713 386 783 343 760 m 469 -57 b 583 -171 531 -57 583 -97 b 553 -262 583 -206 571 -236 l 451 -410 l 338 -410 l 400 -262 b 354 -172 368 -240 354 -208 b 469 -57 354 -104 403 -57 "},"T":{"ha":849,"x_min":0,"x_max":0,"o":"m 547 774 l 547 0 l 300 0 l 300 774 l 10 774 l 10 974 l 840 974 l 840 774 "},"Ť":{"ha":849,"x_min":0,"x_max":0,"o":"m 350 1281 l 435 1153 l 519 1281 l 707 1281 l 539 1053 l 331 1053 l 163 1281 m 547 774 l 547 0 l 300 0 l 300 774 l 10 774 l 10 974 l 840 974 l 840 774 "},"Ţ":{"ha":849,"x_min":0,"x_max":0,"o":"m 465 -71 b 560 -183 522 -86 560 -126 b 386 -326 560 -271 488 -326 b 254 -283 343 -326 293 -310 l 299 -185 b 367 -212 317 -201 343 -212 b 425 -161 403 -212 425 -189 b 361 -111 425 -133 403 -111 b 311 -117 347 -111 328 -114 l 367 0 l 300 0 l 300 774 l 10 774 l 10 974 l 840 974 l 840 774 l 547 774 l 547 0 l 501 0 "},"Ț":{"ha":849,"x_min":0,"x_max":0,"o":"m 840 774 l 547 774 l 547 0 l 300 0 l 300 774 l 10 774 l 10 974 l 840 974 m 417 -57 b 531 -171 478 -57 531 -97 b 500 -262 531 -206 518 -236 l 399 -410 l 285 -410 l 347 -262 b 301 -172 315 -240 301 -208 b 417 -57 301 -104 350 -57 "},"U":{"ha":1053,"x_min":0,"x_max":0,"o":"m 972 408 b 529 -11 972 151 801 -11 b 81 408 256 -11 81 151 l 81 972 l 328 972 l 328 408 b 531 196 328 276 413 196 b 726 408 647 196 726 276 l 726 972 l 972 972 "},"Ú":{"ha":1053,"x_min":0,"x_max":0,"o":"m 590 1057 l 407 1057 l 554 1290 l 771 1214 m 972 408 b 529 -11 972 151 801 -11 b 81 408 256 -11 81 151 l 81 972 l 328 972 l 328 408 b 531 196 328 276 413 196 b 726 408 647 196 726 276 l 726 972 l 972 972 "},"Û":{"ha":1053,"x_min":0,"x_max":0,"o":"m 608 1071 l 528 1189 l 447 1071 l 275 1071 l 432 1281 l 624 1281 l 781 1071 m 972 408 b 529 -11 972 151 801 -11 b 81 408 256 -11 81 151 l 81 972 l 328 972 l 328 408 b 531 196 328 276 413 196 b 726 408 647 196 726 276 l 726 972 l 972 972 "},"Ü":{"ha":1053,"x_min":0,"x_max":0,"o":"m 394 1292 b 503 1183 457 1292 503 1247 b 394 1076 503 1121 457 1076 b 286 1183 332 1076 286 1121 b 394 1292 286 1247 332 1292 m 663 1292 b 771 1183 725 1292 771 1247 b 663 1076 771 1121 725 1076 b 554 1183 600 1076 554 1121 b 663 1292 554 1247 600 1292 m 972 408 b 529 -11 972 151 801 -11 b 81 408 256 -11 81 151 l 81 972 l 328 972 l 328 408 b 531 196 328 276 413 196 b 726 408 647 196 726 276 l 726 972 l 972 972 "},"Ù":{"ha":1053,"x_min":0,"x_max":0,"o":"m 465 1057 l 285 1214 l 501 1290 l 649 1057 m 972 408 b 529 -11 972 151 801 -11 b 81 408 256 -11 81 151 l 81 972 l 328 972 l 328 408 b 531 196 328 276 413 196 b 726 408 647 196 726 276 l 726 972 l 972 972 "},"Ű":{"ha":1053,"x_min":0,"x_max":0,"o":"m 461 1056 l 286 1056 l 404 1293 l 586 1226 m 731 1056 l 556 1056 l 674 1293 l 856 1226 m 972 408 b 529 -11 972 151 801 -11 b 81 408 256 -11 81 151 l 81 972 l 328 972 l 328 408 b 531 196 328 276 413 196 b 726 408 647 196 726 276 l 726 972 l 972 972 "},"Ū":{"ha":1053,"x_min":0,"x_max":0,"o":"m 333 1101 l 333 1263 l 719 1263 l 719 1101 m 972 408 b 529 -11 972 151 801 -11 b 81 408 256 -11 81 151 l 81 972 l 328 972 l 328 408 b 531 196 328 276 413 196 b 726 408 647 196 726 276 l 726 972 l 972 972 "},"Ų":{"ha":1054,"x_min":0,"x_max":0,"o":"m 974 408 b 701 14 974 211 872 69 b 632 -128 658 -49 632 -97 b 661 -161 632 -150 643 -161 b 721 -118 683 -161 703 -144 l 782 -189 b 632 -282 747 -249 693 -282 b 510 -167 576 -282 510 -253 b 569 -10 510 -115 533 -62 l 529 -11 b 81 408 256 -11 81 151 l 81 974 l 326 974 l 326 408 b 531 196 326 276 413 196 b 726 408 647 196 726 275 l 726 974 l 974 974 "},"Ů":{"ha":1053,"x_min":0,"x_max":0,"o":"m 526 1354 b 694 1188 619 1354 694 1279 b 526 1021 694 1096 619 1021 b 358 1188 433 1021 358 1096 b 526 1354 358 1279 433 1354 m 526 1260 b 453 1188 486 1260 453 1226 b 526 1115 453 1147 486 1115 b 600 1188 567 1115 600 1147 b 526 1260 600 1226 567 1260 m 972 408 b 529 -11 972 151 801 -11 b 81 408 256 -11 81 151 l 81 972 l 328 972 l 328 408 b 531 196 328 276 413 196 b 726 408 647 196 726 276 l 726 972 l 972 972 "},"V":{"ha":1013,"x_min":0,"x_max":0,"o":"m 376 0 l -1 972 l 263 972 l 511 257 l 760 972 l 1014 972 l 632 0 "},"W":{"ha":1501,"x_min":0,"x_max":0,"o":"m 936 0 l 756 672 l 572 0 l 317 0 l -1 972 l 263 972 l 453 257 l 639 972 l 881 972 l 1071 257 l 1258 972 l 1511 972 l 1190 0 "},"Ẃ":{"ha":1501,"x_min":0,"x_max":0,"o":"m 778 1057 l 594 1057 l 742 1290 l 958 1214 m 936 0 l 756 672 l 572 0 l 317 0 l -1 972 l 263 972 l 453 257 l 639 972 l 881 972 l 1071 257 l 1258 972 l 1511 972 l 1190 0 "},"Ŵ":{"ha":1501,"x_min":0,"x_max":0,"o":"m 794 1071 l 714 1189 l 633 1071 l 461 1071 l 618 1281 l 810 1281 l 967 1071 m 936 0 l 756 672 l 572 0 l 317 0 l -1 972 l 263 972 l 453 257 l 639 972 l 881 972 l 1071 257 l 1258 972 l 1511 972 l 1190 0 "},"Ẅ":{"ha":1501,"x_min":0,"x_max":0,"o":"m 581 1292 b 689 1183 643 1292 689 1247 b 581 1076 689 1121 643 1076 b 472 1183 518 1076 472 1121 b 581 1292 472 1247 518 1292 m 849 1292 b 957 1183 911 1292 957 1247 b 849 1076 957 1121 911 1076 b 740 1183 786 1076 740 1121 b 849 1292 740 1247 786 1292 m 936 0 l 756 672 l 572 0 l 317 0 l -1 972 l 263 972 l 453 257 l 639 972 l 881 972 l 1071 257 l 1258 972 l 1511 972 l 1190 0 "},"Ẁ":{"ha":1501,"x_min":0,"x_max":0,"o":"m 653 1057 l 472 1214 l 689 1290 l 836 1057 m 936 0 l 756 672 l 572 0 l 317 0 l -1 972 l 263 972 l 453 257 l 639 972 l 881 972 l 1071 257 l 1258 972 l 1511 972 l 1190 0 "},"X":{"ha":1019,"x_min":0,"x_max":0,"o":"m 1010 0 l 714 0 l 504 310 l 294 0 l 7 0 l 354 497 l 29 972 l 317 972 l 504 689 l 692 972 l 982 972 l 661 508 "},"Y":{"ha":944,"x_min":0,"x_max":0,"o":"m 599 0 l 353 0 l 353 307 l -7 972 l 240 972 l 475 549 l 704 972 l 951 972 l 599 314 "},"Ý":{"ha":944,"x_min":0,"x_max":0,"o":"m 351 1057 l 499 1290 l 715 1214 l 535 1057 m 599 0 l 353 0 l 353 307 l -7 972 l 240 972 l 475 549 l 704 972 l 951 972 l 599 314 "},"Ŷ":{"ha":944,"x_min":0,"x_max":0,"o":"m 219 1071 l 376 1281 l 568 1281 l 725 1071 l 553 1071 l 472 1189 l 392 1071 m 599 0 l 353 0 l 353 307 l -7 972 l 240 972 l 475 549 l 704 972 l 951 972 l 599 314 "},"Ÿ":{"ha":944,"x_min":0,"x_max":0,"o":"m 339 1076 b 231 1183 276 1076 231 1121 b 339 1292 231 1247 276 1292 b 447 1183 401 1292 447 1247 b 339 1076 447 1121 401 1076 m 607 1076 b 499 1183 544 1076 499 1121 b 607 1292 499 1247 544 1292 b 715 1183 669 1292 715 1247 b 607 1076 715 1121 669 1076 m 599 0 l 353 0 l 353 307 l -7 972 l 240 972 l 475 549 l 704 972 l 951 972 l 599 314 "},"Ỳ":{"ha":944,"x_min":0,"x_max":0,"o":"m 231 1214 l 447 1290 l 594 1057 l 411 1057 m 599 0 l 353 0 l 353 307 l -7 972 l 240 972 l 475 549 l 704 972 l 951 972 l 599 314 "},"Z":{"ha":938,"x_min":0,"x_max":0,"o":"m 369 196 l 897 196 l 897 0 l 39 0 l 39 158 l 560 776 l 57 776 l 57 972 l 889 972 l 889 814 "},"Ź":{"ha":938,"x_min":0,"x_max":0,"o":"m 553 1057 l 369 1057 l 517 1290 l 733 1214 m 369 196 l 897 196 l 897 0 l 39 0 l 39 158 l 560 776 l 57 776 l 57 972 l 889 972 l 889 814 "},"Ž":{"ha":938,"x_min":0,"x_max":0,"o":"m 399 1281 l 483 1153 l 568 1281 l 756 1281 l 588 1053 l 379 1053 l 211 1281 m 369 196 l 897 196 l 897 0 l 39 0 l 39 158 l 560 776 l 57 776 l 57 972 l 889 972 l 889 814 "},"Ż":{"ha":938,"x_min":0,"x_max":0,"o":"m 490 1314 b 617 1188 564 1314 617 1261 b 490 1060 617 1113 564 1060 b 364 1188 417 1060 364 1113 b 490 1314 364 1261 417 1314 m 369 196 l 897 196 l 897 0 l 39 0 l 39 158 l 560 776 l 57 776 l 57 972 l 889 972 l 889 814 "},"a":{"ha":833,"x_min":0,"x_max":0,"o":"m 432 760 b 758 489 638 760 757 658 l 758 0 l 524 0 l 524 86 b 294 -11 475 22 396 -11 b 38 224 135 -11 38 86 b 325 450 38 365 139 449 l 522 450 l 522 461 b 376 579 522 535 474 579 b 153 517 314 579 232 557 l 85 675 b 432 760 201 729 307 760 m 368 151 b 522 254 443 151 507 193 l 522 321 l 371 321 b 263 240 299 321 263 296 b 368 151 263 186 301 151 "},"á":{"ha":833,"x_min":0,"x_max":0,"o":"m 296 833 l 443 1067 l 660 990 l 479 833 m 432 760 b 758 489 638 760 757 658 l 758 0 l 524 0 l 524 86 b 294 -11 475 22 396 -11 b 38 224 135 -11 38 86 b 325 450 38 365 139 449 l 522 450 l 522 461 b 376 579 522 535 474 579 b 153 517 314 579 232 557 l 85 675 b 432 760 201 729 307 760 m 368 151 b 522 254 443 151 507 193 l 522 321 l 371 321 b 263 240 299 321 263 296 b 368 151 263 186 301 151 "},"ă":{"ha":833,"x_min":0,"x_max":0,"o":"m 415 835 b 188 1054 285 835 194 921 l 338 1054 b 415 974 342 1007 372 974 b 493 1054 458 974 489 1007 l 643 1054 b 415 835 636 921 546 835 m 432 760 b 758 489 638 760 757 658 l 758 0 l 524 0 l 524 86 b 294 -11 475 22 396 -11 b 38 224 135 -11 38 86 b 325 450 38 365 139 449 l 522 450 l 522 461 b 376 579 522 535 474 579 b 153 517 314 579 232 557 l 85 675 b 432 760 201 729 307 760 m 368 151 b 522 254 443 151 507 193 l 522 321 l 371 321 b 263 240 299 321 263 296 b 368 151 263 186 301 151 "},"â":{"ha":833,"x_min":0,"x_max":0,"o":"m 163 847 l 319 1057 l 511 1057 l 668 847 l 496 847 l 415 965 l 335 847 m 432 760 b 758 489 638 760 757 658 l 758 0 l 524 0 l 524 86 b 294 -11 475 22 396 -11 b 38 224 135 -11 38 86 b 325 450 38 365 139 449 l 522 450 l 522 461 b 376 579 522 535 474 579 b 153 517 314 579 232 557 l 85 675 b 432 760 201 729 307 760 m 368 151 b 522 254 443 151 507 193 l 522 321 l 371 321 b 263 240 299 321 263 296 b 368 151 263 186 301 151 "},"ä":{"ha":833,"x_min":0,"x_max":0,"o":"m 282 853 b 174 960 219 853 174 897 b 282 1068 174 1024 219 1068 b 390 960 344 1068 390 1024 b 282 853 390 897 344 853 m 550 853 b 442 960 488 853 442 897 b 550 1068 442 1024 488 1068 b 658 960 613 1068 658 1024 b 550 853 658 897 613 853 m 432 760 b 758 489 638 760 757 658 l 758 0 l 524 0 l 524 86 b 294 -11 475 22 396 -11 b 38 224 135 -11 38 86 b 325 450 38 365 139 449 l 522 450 l 522 461 b 376 579 522 535 474 579 b 153 517 314 579 232 557 l 85 675 b 432 760 201 729 307 760 m 368 151 b 522 254 443 151 507 193 l 522 321 l 371 321 b 263 240 299 321 263 296 b 368 151 263 186 301 151 "},"à":{"ha":833,"x_min":0,"x_max":0,"o":"m 174 990 l 390 1067 l 538 833 l 354 833 m 432 760 b 758 489 638 760 757 658 l 758 0 l 524 0 l 524 86 b 294 -11 475 22 396 -11 b 38 224 135 -11 38 86 b 325 450 38 365 139 449 l 522 450 l 522 461 b 376 579 522 535 474 579 b 153 517 314 579 232 557 l 85 675 b 432 760 201 729 307 760 m 368 151 b 522 254 443 151 507 193 l 522 321 l 371 321 b 263 240 299 321 263 296 b 368 151 263 186 301 151 "},"ā":{"ha":833,"x_min":0,"x_max":0,"o":"m 222 878 l 222 1039 l 608 1039 l 608 878 m 432 760 b 758 489 638 760 757 658 l 758 0 l 524 0 l 524 86 b 294 -11 475 22 396 -11 b 38 224 135 -11 38 86 b 325 450 38 365 139 449 l 522 450 l 522 461 b 376 579 522 535 474 579 b 153 517 314 579 232 557 l 85 675 b 432 760 201 729 307 760 m 368 151 b 522 254 443 151 507 193 l 522 321 l 371 321 b 263 240 299 321 263 296 b 368 151 263 186 301 151 "},"ą":{"ha":840,"x_min":0,"x_max":0,"o":"m 435 760 b 763 489 642 760 761 658 l 763 0 l 706 0 b 644 -128 667 -57 644 -101 b 675 -161 644 -150 657 -161 b 735 -118 696 -161 717 -144 l 796 -189 b 646 -282 761 -249 706 -282 b 524 -167 590 -282 524 -253 b 590 0 524 -112 550 -57 l 526 0 l 526 86 b 296 -11 478 22 399 -11 b 38 224 135 -11 38 86 b 326 450 38 365 140 449 l 526 450 l 526 463 b 378 579 524 536 475 579 b 153 517 315 579 233 557 l 85 675 b 435 760 201 729 308 760 m 372 321 b 263 240 299 321 263 296 b 369 151 263 186 303 151 b 526 251 443 151 511 196 l 526 321 "},"å":{"ha":833,"x_min":0,"x_max":0,"o":"m 415 797 b 247 964 322 797 247 872 b 415 1131 247 1056 322 1131 b 583 964 508 1131 583 1056 b 415 797 583 872 508 797 m 415 1036 b 342 964 375 1036 342 1003 b 415 892 342 924 375 892 b 489 964 456 892 489 924 b 415 1036 489 1003 456 1036 m 432 760 b 758 489 638 760 757 658 l 758 0 l 524 0 l 524 86 b 294 -11 475 22 396 -11 b 38 224 135 -11 38 86 b 325 450 38 365 139 449 l 522 450 l 522 461 b 376 579 522 535 474 579 b 153 517 314 579 232 557 l 85 675 b 432 760 201 729 307 760 m 368 151 b 522 254 443 151 507 193 l 522 321 l 371 321 b 263 240 299 321 263 296 b 368 151 263 186 301 151 "},"ã":{"ha":833,"x_min":0,"x_max":0,"o":"m 357 922 b 315 863 329 922 315 903 l 168 863 b 314 1079 168 1008 217 1079 b 474 1014 396 1079 435 1014 b 517 1072 503 1014 517 1033 l 663 1072 b 518 857 663 926 615 857 b 357 922 433 857 397 922 m 432 760 b 758 489 638 760 757 658 l 758 0 l 524 0 l 524 86 b 294 -11 475 22 396 -11 b 38 224 135 -11 38 86 b 325 450 38 365 139 449 l 522 450 l 522 461 b 376 579 522 535 474 579 b 153 517 314 579 232 557 l 85 675 b 432 760 201 729 307 760 m 368 151 b 522 254 443 151 507 193 l 522 321 l 371 321 b 263 240 299 321 263 296 b 368 151 263 186 301 151 "},"æ":{"ha":1342,"x_min":0,"x_max":0,"o":"m 921 757 b 1308 322 1169 757 1321 585 l 769 322 b 947 171 789 226 856 171 b 1128 247 1014 171 1078 197 l 1254 124 b 926 -8 1176 39 1065 -8 b 617 149 782 -8 676 50 b 310 -11 558 46 453 -11 b 38 221 140 -11 38 82 b 326 440 38 361 142 439 l 526 440 l 526 461 b 379 579 526 535 475 579 b 140 517 311 579 225 557 l 85 678 b 433 760 203 729 324 760 b 686 678 544 760 629 731 b 921 757 746 729 826 757 m 1068 438 b 922 596 1068 529 1010 596 b 767 438 839 596 782 531 m 369 144 b 526 240 435 144 490 174 l 526 326 l 375 326 b 263 240 304 326 263 296 b 369 144 263 182 304 144 m 583 224 l 576 225 l 583 219 "},"b":{"ha":951,"x_min":0,"x_max":0,"o":"m 567 757 b 918 371 778 757 918 603 b 572 -8 918 143 782 -8 b 343 100 475 -8 396 31 l 343 0 l 103 0 l 103 1031 l 343 1031 l 343 650 b 567 757 396 718 472 757 m 508 182 b 676 378 608 182 676 263 b 508 572 676 492 608 572 b 343 378 411 572 343 492 b 508 182 343 261 411 182 "},"c":{"ha":781,"x_min":0,"x_max":0,"o":"m 422 757 b 756 589 571 757 690 696 l 583 485 b 432 563 549 533 497 563 b 275 374 339 563 275 486 b 432 183 275 258 339 183 b 585 268 500 183 553 211 l 760 165 b 419 -8 699 56 578 -8 b 33 372 189 -8 33 144 b 422 757 33 603 190 757 "},"ć":{"ha":781,"x_min":0,"x_max":0,"o":"m 469 833 l 286 833 l 433 1067 l 650 990 m 422 757 b 756 589 571 757 690 696 l 583 485 b 432 563 549 533 497 563 b 275 374 339 563 275 486 b 432 183 275 258 339 183 b 585 268 500 183 553 211 l 760 165 b 419 -8 699 56 578 -8 b 33 372 189 -8 33 144 b 422 757 33 603 190 757 "},"č":{"ha":781,"x_min":0,"x_max":0,"o":"m 317 1056 l 401 928 l 486 1056 l 674 1056 l 506 828 l 297 828 l 129 1056 m 422 757 b 756 589 571 757 690 696 l 583 485 b 432 563 549 533 497 563 b 275 374 339 563 275 486 b 432 183 275 258 339 183 b 585 268 500 183 553 211 l 760 165 b 419 -8 699 56 578 -8 b 33 372 189 -8 33 144 b 422 757 33 603 190 757 "},"ç":{"ha":781,"x_min":0,"x_max":0,"o":"m 760 165 b 496 -3 708 74 617 14 l 461 -71 b 556 -183 518 -86 556 -126 b 382 -326 556 -271 483 -326 b 250 -283 339 -326 289 -310 l 294 -185 b 363 -212 313 -201 339 -212 b 421 -161 399 -212 421 -189 b 357 -111 421 -133 399 -111 b 307 -117 343 -111 324 -114 l 361 -4 b 33 372 163 19 33 164 b 422 757 33 603 190 757 b 756 589 571 757 690 696 l 583 485 b 432 563 549 533 497 563 b 275 374 339 563 275 486 b 432 183 275 258 339 183 b 585 268 500 183 553 211 "},"d":{"ha":953,"x_min":0,"x_max":0,"o":"m 850 0 l 610 0 l 610 99 b 385 -10 557 29 481 -10 b 35 378 174 -10 35 146 b 379 758 35 607 172 758 b 610 650 478 758 557 719 l 610 1031 l 850 1031 m 443 176 b 610 372 543 176 610 257 b 443 567 610 488 543 567 b 275 372 343 567 276 488 b 443 176 276 257 343 176 "},"ð":{"ha":839,"x_min":0,"x_max":0,"o":"m 628 822 b 806 394 740 700 806 550 b 393 -11 806 149 643 -11 b 31 314 174 -11 31 117 b 346 618 31 499 154 618 b 569 535 438 618 525 586 b 421 753 544 608 492 685 l 194 678 l 158 789 l 315 842 b 142 943 263 879 204 914 l 303 1040 b 528 913 386 1007 463 964 l 726 979 l 764 868 m 403 188 b 550 322 493 188 550 240 b 403 458 550 404 493 458 b 260 325 315 458 260 407 b 403 188 260 242 317 188 "},"ď":{"ha":1092,"x_min":0,"x_max":0,"o":"m 850 1031 l 850 0 l 610 0 l 610 99 b 385 -10 557 29 481 -10 b 35 378 174 -10 35 146 b 379 758 35 607 172 758 b 610 650 478 758 557 719 l 610 1031 m 1035 940 b 1149 826 1096 940 1149 900 b 1118 735 1149 792 1136 763 l 1017 588 l 903 588 l 965 736 b 919 826 933 757 919 790 b 1035 940 919 893 968 940 m 443 176 b 610 372 543 176 610 257 b 443 567 610 488 543 567 b 275 372 343 567 276 488 b 443 176 276 257 343 176 "},"đ":{"ha":953,"x_min":0,"x_max":0,"o":"m 850 826 l 850 0 l 610 0 l 610 99 b 385 -10 557 29 481 -10 b 35 378 174 -10 35 146 b 379 758 35 607 172 758 b 610 650 478 758 557 719 l 610 826 l 492 826 l 492 950 l 610 950 l 610 1031 l 850 1031 l 850 950 l 940 950 l 940 826 m 443 176 b 610 372 543 176 610 257 b 443 567 610 488 543 567 b 275 372 343 567 276 488 b 443 176 276 257 343 176 "},"e":{"ha":836,"x_min":0,"x_max":0,"o":"m 424 757 b 801 310 688 757 818 583 l 275 310 b 451 171 299 221 363 171 b 631 247 517 171 581 197 l 757 124 b 431 -8 681 40 568 -8 b 33 372 186 -8 33 144 b 424 757 33 604 192 757 m 571 439 b 426 590 571 531 513 590 b 271 439 343 590 286 529 "},"é":{"ha":836,"x_min":0,"x_max":0,"o":"m 297 833 l 444 1067 l 661 990 l 481 833 m 424 757 b 801 310 688 757 818 583 l 275 310 b 451 171 299 221 363 171 b 631 247 517 171 581 197 l 757 124 b 431 -8 681 40 568 -8 b 33 372 186 -8 33 144 b 424 757 33 604 192 757 m 571 439 b 426 590 571 531 513 590 b 271 439 343 590 286 529 "},"ě":{"ha":836,"x_min":0,"x_max":0,"o":"m 139 1056 l 326 1056 l 411 928 l 496 1056 l 683 1056 l 515 828 l 307 828 m 424 757 b 801 310 688 757 818 583 l 275 310 b 451 171 299 221 363 171 b 631 247 517 171 581 197 l 757 124 b 431 -8 681 40 568 -8 b 33 372 186 -8 33 144 b 424 757 33 604 192 757 m 571 439 b 426 590 571 531 513 590 b 271 439 343 590 286 529 "},"ê":{"ha":836,"x_min":0,"x_max":0,"o":"m 165 846 l 322 1056 l 514 1056 l 671 846 l 499 846 l 418 964 l 338 846 m 424 757 b 801 310 688 757 818 583 l 275 310 b 451 171 299 221 363 171 b 631 247 517 171 581 197 l 757 124 b 431 -8 681 40 568 -8 b 33 372 186 -8 33 144 b 424 757 33 604 192 757 m 571 439 b 426 590 571 531 513 590 b 271 439 343 590 286 529 "},"ë":{"ha":836,"x_min":0,"x_max":0,"o":"m 285 853 b 176 960 222 853 176 897 b 285 1068 176 1024 222 1068 b 393 960 347 1068 393 1024 b 285 853 393 897 347 853 m 553 853 b 444 960 490 853 444 897 b 553 1068 444 1024 490 1068 b 661 960 615 1068 661 1024 b 553 853 661 897 615 853 m 424 757 b 801 310 688 757 818 583 l 275 310 b 451 171 299 221 363 171 b 631 247 517 171 581 197 l 757 124 b 431 -8 681 40 568 -8 b 33 372 186 -8 33 144 b 424 757 33 604 192 757 m 571 439 b 426 590 571 531 513 590 b 271 439 343 590 286 529 "},"ė":{"ha":836,"x_min":0,"x_max":0,"o":"m 418 836 b 292 964 344 836 292 889 b 418 1090 292 1038 344 1090 b 544 964 492 1090 544 1038 b 418 836 544 889 492 836 m 424 757 b 801 310 688 757 818 583 l 275 310 b 451 171 299 221 363 171 b 631 247 517 171 581 197 l 757 124 b 431 -8 681 40 568 -8 b 33 372 186 -8 33 144 b 424 757 33 604 192 757 m 571 439 b 426 590 571 531 513 590 b 271 439 343 590 286 529 "},"è":{"ha":836,"x_min":0,"x_max":0,"o":"m 176 990 l 393 1067 l 540 833 l 357 833 m 424 757 b 801 310 688 757 818 583 l 275 310 b 451 171 299 221 363 171 b 631 247 517 171 581 197 l 757 124 b 431 -8 681 40 568 -8 b 33 372 186 -8 33 144 b 424 757 33 604 192 757 m 571 439 b 426 590 571 531 513 590 b 271 439 343 590 286 529 "},"ē":{"ha":836,"x_min":0,"x_max":0,"o":"m 225 878 l 225 1039 l 611 1039 l 611 878 m 424 757 b 801 310 688 757 818 583 l 275 310 b 451 171 299 221 363 171 b 631 247 517 171 581 197 l 757 124 b 431 -8 681 40 568 -8 b 33 372 186 -8 33 144 b 424 757 33 604 192 757 m 571 439 b 426 590 571 531 513 590 b 271 439 343 590 286 529 "},"ę":{"ha":836,"x_min":0,"x_max":0,"o":"m 425 757 b 801 310 681 760 819 586 l 276 310 b 451 169 300 222 361 169 b 631 247 515 169 581 197 l 757 124 b 606 -126 692 49 606 -62 b 635 -161 606 -150 617 -161 b 693 -118 657 -161 676 -143 l 754 -189 b 606 -282 719 -249 668 -282 b 483 -165 550 -282 483 -253 b 561 24 483 -106 514 -42 b 428 -8 518 1 475 -8 b 35 374 188 -8 35 143 b 425 757 35 599 182 754 m 428 590 b 271 439 343 590 283 529 l 571 439 b 428 590 571 528 513 590 "},"f":{"ha":536,"x_min":0,"x_max":0,"o":"m 464 851 b 378 769 415 853 378 825 l 378 715 l 547 715 l 547 557 l 378 557 l 378 0 l 140 0 l 140 557 l 39 557 l 39 715 l 140 715 l 140 785 b 426 1042 140 950 265 1042 b 636 989 500 1042 579 1022 l 551 821 b 464 851 525 840 492 851 "},"g":{"ha":899,"x_min":0,"x_max":0,"o":"m 811 68 b 406 -279 811 -144 647 -279 b 72 -181 275 -279 157 -237 l 156 -18 b 388 -93 224 -65 307 -93 b 572 61 503 -93 572 -32 l 572 140 b 357 40 524 76 450 40 b 35 403 168 40 35 185 b 351 757 35 615 164 757 b 572 657 447 758 522 722 l 572 749 l 811 749 m 417 214 b 572 396 510 214 572 289 b 417 579 572 506 510 579 b 258 396 322 579 258 504 b 417 214 258 289 322 214 "},"ğ":{"ha":899,"x_min":0,"x_max":0,"o":"m 450 835 b 222 1054 319 835 229 921 l 372 1054 b 450 974 376 1007 407 974 b 528 1054 493 974 524 1007 l 678 1054 b 450 835 671 921 581 835 m 811 68 b 406 -279 811 -144 647 -279 b 72 -181 275 -279 157 -237 l 156 -18 b 388 -93 224 -65 307 -93 b 572 61 503 -93 572 -32 l 572 140 b 357 40 524 76 450 40 b 35 403 168 40 35 185 b 351 757 35 615 164 757 b 572 657 447 758 522 722 l 572 749 l 811 749 m 417 214 b 572 396 510 214 572 289 b 417 579 572 506 510 579 b 258 396 322 579 258 504 b 417 214 258 289 322 214 "},"ģ":{"ha":899,"x_min":0,"x_max":0,"o":"m 440 806 b 326 919 379 806 326 846 b 357 1011 326 954 339 985 l 458 1158 l 572 1158 l 510 1011 b 556 921 542 989 556 957 b 440 806 556 853 507 806 m 811 68 b 406 -279 811 -144 647 -279 b 72 -181 275 -279 157 -237 l 156 -18 b 388 -93 224 -65 307 -93 b 572 61 503 -93 572 -32 l 572 140 b 357 40 524 76 450 40 b 35 403 168 40 35 185 b 351 757 35 615 164 757 b 572 657 447 758 522 722 l 572 749 l 811 749 m 417 214 b 572 396 510 214 572 289 b 417 579 572 506 510 579 b 258 396 322 579 258 504 b 417 214 258 289 322 214 "},"h":{"ha":942,"x_min":0,"x_max":0,"o":"m 594 760 b 868 472 760 760 868 647 l 868 0 l 628 0 l 628 406 b 496 547 628 493 578 547 b 343 369 401 547 343 472 l 343 0 l 103 0 l 103 1031 l 343 1031 l 343 625 b 594 760 396 714 483 758 "},"ħ":{"ha":1032,"x_min":0,"x_max":0,"o":"m 594 760 b 868 472 760 760 868 647 l 868 0 l 628 0 l 628 406 b 496 547 628 493 578 547 b 343 369 401 547 343 472 l 343 0 l 103 0 l 103 800 l -7 800 l -7 931 l 103 931 l 103 1031 l 343 1031 l 343 931 l 507 931 l 507 800 l 343 800 l 343 625 b 594 760 396 714 483 758 "},"i":{"ha":432,"x_min":0,"x_max":0,"o":"m 217 1090 b 343 964 290 1090 343 1038 b 217 836 343 889 290 836 b 90 964 143 836 90 889 b 217 1090 90 1038 143 1090 m 96 0 l 96 749 l 335 749 l 335 0 "},"ı":{"ha":432,"x_min":0,"x_max":0,"o":"m 96 0 l 96 749 l 335 749 l 335 0 "},"í":{"ha":432,"x_min":0,"x_max":0,"o":"m 279 833 l 96 833 l 243 1067 l 460 990 m 96 0 l 96 749 l 335 749 l 335 0 "},"î":{"ha":432,"x_min":0,"x_max":0,"o":"m 297 847 l 217 965 l 136 847 l -36 847 l 121 1057 l 313 1057 l 469 847 m 96 0 l 96 749 l 335 749 l 335 0 "},"ï":{"ha":432,"x_min":0,"x_max":0,"o":"m 83 1068 b 192 960 146 1068 192 1024 b 83 853 192 897 146 853 b -25 960 21 853 -25 897 b 83 1068 -25 1024 21 1068 m 351 1068 b 460 960 414 1068 460 1024 b 351 853 460 897 414 853 b 243 960 289 853 243 897 b 351 1068 243 1024 289 1068 m 96 0 l 96 749 l 335 749 l 335 0 "},"ì":{"ha":432,"x_min":0,"x_max":0,"o":"m 156 833 l -25 990 l 192 1067 l 339 833 m 96 0 l 96 749 l 335 749 l 335 0 "},"ĳ":{"ha":875,"x_min":0,"x_max":0,"o":"m 217 1090 b 343 964 290 1090 343 1038 b 217 836 343 889 290 836 b 90 964 143 836 90 889 b 217 1090 90 1038 143 1090 m 650 1090 b 786 963 731 1090 786 1038 b 650 836 786 889 731 836 b 514 963 571 836 514 889 b 650 1090 514 1038 571 1090 m 96 0 l 96 749 l 335 749 l 335 0 m 771 -22 b 499 -279 771 -190 651 -281 b 311 -231 429 -279 363 -262 l 372 -62 b 457 -89 400 -79 429 -89 b 531 -7 501 -90 531 -64 l 531 749 l 771 749 "},"ī":{"ha":432,"x_min":0,"x_max":0,"o":"m 22 878 l 22 1039 l 408 1039 l 408 878 m 96 0 l 96 749 l 335 749 l 335 0 "},"į":{"ha":403,"x_min":0,"x_max":0,"o":"m 203 1090 b 331 963 278 1090 331 1038 b 203 836 331 889 278 836 b 75 963 129 836 75 889 b 203 1090 75 1038 129 1090 m 267 0 b 206 -128 228 -57 206 -101 b 236 -161 206 -150 218 -161 b 296 -118 257 -161 278 -144 l 357 -189 b 207 -282 322 -249 267 -282 b 85 -167 150 -282 85 -253 b 150 0 85 -112 111 -58 l 83 0 l 83 749 l 322 749 l 322 0 "},"ĩ":{"ha":432,"x_min":0,"x_max":0,"o":"m 114 1079 b 274 1014 196 1079 235 1014 b 317 1072 303 1014 317 1033 l 463 1072 b 318 857 463 926 415 857 b 157 922 233 857 197 922 b 115 863 129 922 115 903 l -32 863 b 114 1079 -32 1008 17 1079 m 96 0 l 96 749 l 335 749 l 335 0 "},"j":{"ha":443,"x_min":0,"x_max":0,"o":"m 218 1090 b 354 963 299 1090 354 1038 b 218 836 354 889 299 836 b 82 963 139 836 82 889 b 218 1090 82 1038 139 1090 m 339 -22 b 67 -279 339 -190 219 -281 b -121 -231 -3 -279 -69 -262 l -60 -62 b 25 -89 -32 -79 -3 -89 b 99 -7 69 -90 99 -64 l 99 749 l 339 749 "},"ȷ":{"ha":428,"x_min":0,"x_max":0,"o":"m 339 -28 b 74 -279 339 -186 236 -281 b -125 -231 -1 -278 -69 -261 l -69 -65 b 19 -92 -40 -82 -11 -92 b 99 7 71 -93 99 -60 l 99 749 l 339 749 "},"ĵ":{"ha":428,"x_min":0,"x_max":0,"o":"m 290 847 l 210 965 l 129 847 l -43 847 l 114 1057 l 306 1057 l 463 847 m 339 -28 b 74 -279 339 -186 236 -281 b -125 -231 -1 -278 -69 -261 l -69 -65 b 19 -92 -40 -82 -11 -92 b 99 7 71 -93 99 -60 l 99 749 l 339 749 "},"k":{"ha":875,"x_min":0,"x_max":0,"o":"m 343 204 l 343 0 l 103 0 l 103 1031 l 343 1031 l 343 486 l 590 749 l 863 749 l 588 461 l 871 0 l 586 0 l 424 289 "},"ķ":{"ha":875,"x_min":0,"x_max":0,"o":"m 343 204 l 343 0 l 279 0 l 243 -68 b 338 -178 299 -82 338 -126 b 163 -325 338 -267 269 -325 b 33 -282 122 -325 71 -308 l 76 -183 b 142 -210 93 -199 118 -210 b 203 -154 179 -210 204 -187 b 140 -101 203 -122 178 -101 b 92 -106 128 -101 107 -103 l 144 0 l 103 0 l 103 1031 l 343 1031 l 343 486 l 590 749 l 863 749 l 588 461 l 871 0 l 586 0 l 424 289 "},"ĸ":{"ha":867,"x_min":0,"x_max":0,"o":"m 335 204 l 335 0 l 96 0 l 96 749 l 335 749 l 335 486 l 582 749 l 854 749 l 579 461 l 863 0 l 578 0 l 415 289 "},"l":{"ha":446,"x_min":0,"x_max":0,"o":"m 103 0 l 103 1031 l 343 1031 l 343 0 "},"ĺ":{"ha":446,"x_min":0,"x_max":0,"o":"m 286 1115 l 103 1115 l 250 1349 l 467 1272 m 103 0 l 103 1031 l 343 1031 l 343 0 "},"ľ":{"ha":564,"x_min":0,"x_max":0,"o":"m 343 1031 l 343 0 l 103 0 l 103 1031 m 507 940 b 621 826 568 940 621 900 b 590 735 621 792 608 763 l 489 588 l 375 588 l 438 736 b 392 826 406 757 392 790 b 507 940 392 893 440 940 "},"ļ":{"ha":446,"x_min":0,"x_max":0,"o":"m 103 0 l 103 1031 l 343 1031 l 343 0 m 233 -57 b 347 -171 294 -57 347 -97 b 317 -262 347 -206 335 -236 l 215 -410 l 101 -410 l 164 -262 b 118 -172 132 -240 118 -208 b 233 -57 118 -104 167 -57 "},"ŀ":{"ha":546,"x_min":0,"x_max":0,"o":"m 103 0 l 103 1031 l 343 1031 l 343 0 m 482 549 b 596 433 549 549 596 501 b 482 318 596 365 549 318 b 367 433 414 318 367 365 b 482 549 367 501 414 549 "},"ł":{"ha":476,"x_min":0,"x_max":0,"o":"m 372 0 l 132 0 l 132 489 l -6 450 l -47 594 l 132 646 l 132 1031 l 372 1031 l 372 715 l 486 749 l 526 603 l 372 558 "},"m":{"ha":1440,"x_min":0,"x_max":0,"o":"m 1096 760 b 1365 472 1260 760 1365 647 l 1365 0 l 1126 0 l 1126 406 b 997 549 1126 494 1076 549 b 851 371 907 546 851 472 l 851 0 l 611 0 l 611 406 b 483 549 611 494 563 549 b 335 371 392 546 335 472 l 335 0 l 96 0 l 96 749 l 335 749 l 335 625 b 582 760 386 714 472 758 b 832 590 704 760 794 696 b 1096 760 881 701 972 758 "},"n":{"ha":935,"x_min":0,"x_max":0,"o":"m 586 760 b 860 472 751 760 860 647 l 860 0 l 621 0 l 621 406 b 489 547 621 493 569 547 b 336 396 401 547 346 485 l 336 0 l 96 0 l 96 749 l 336 749 l 336 626 b 586 760 389 714 475 758 "},"ń":{"ha":935,"x_min":0,"x_max":0,"o":"m 371 833 l 518 1067 l 735 990 l 554 833 m 586 760 b 860 472 751 760 860 647 l 860 0 l 621 0 l 621 406 b 489 547 621 493 569 547 b 336 396 401 547 346 485 l 336 0 l 96 0 l 96 749 l 336 749 l 336 626 b 586 760 389 714 475 758 "},"ň":{"ha":935,"x_min":0,"x_max":0,"o":"m 213 1057 l 400 1057 l 485 929 l 569 1057 l 757 1057 l 589 829 l 381 829 m 586 760 b 860 472 751 760 860 647 l 860 0 l 621 0 l 621 406 b 489 547 621 493 569 547 b 336 396 401 547 346 485 l 336 0 l 96 0 l 96 749 l 336 749 l 336 626 b 586 760 389 714 475 758 "},"ņ":{"ha":935,"x_min":0,"x_max":0,"o":"m 586 760 b 860 472 751 760 860 647 l 860 0 l 621 0 l 621 406 b 489 547 621 493 569 547 b 336 396 401 547 346 485 l 336 0 l 96 0 l 96 749 l 336 749 l 336 626 b 586 760 389 714 475 758 m 483 -57 b 597 -171 544 -57 597 -97 b 567 -262 597 -206 585 -236 l 465 -410 l 351 -410 l 414 -262 b 368 -172 382 -240 368 -208 b 483 -57 368 -104 417 -57 "},"ñ":{"ha":935,"x_min":0,"x_max":0,"o":"m 432 922 b 390 863 404 922 390 903 l 243 863 b 389 1079 243 1008 292 1079 b 549 1014 471 1079 510 1014 b 592 1072 578 1014 592 1033 l 738 1072 b 593 857 738 926 690 857 b 432 922 508 857 472 922 m 586 760 b 860 472 751 760 860 647 l 860 0 l 621 0 l 621 406 b 489 547 621 493 569 547 b 336 396 401 547 346 485 l 336 0 l 96 0 l 96 749 l 336 749 l 336 626 b 586 760 389 714 475 758 "},"o":{"ha":885,"x_min":0,"x_max":0,"o":"m 443 757 b 851 375 688 757 851 606 b 443 -8 851 144 688 -8 b 33 375 197 -8 33 144 b 443 757 33 606 197 757 m 443 567 b 275 372 343 567 275 488 b 443 178 275 256 343 178 b 610 372 542 178 610 256 b 443 567 610 488 542 567 "},"ó":{"ha":885,"x_min":0,"x_max":0,"o":"m 506 833 l 322 833 l 469 1067 l 686 990 m 443 757 b 851 375 688 757 851 606 b 443 -8 851 144 688 -8 b 33 375 197 -8 33 144 b 443 757 33 606 197 757 m 443 567 b 275 372 343 567 275 488 b 443 178 275 256 343 178 b 610 372 542 178 610 256 b 443 567 610 488 542 567 "},"ô":{"ha":885,"x_min":0,"x_max":0,"o":"m 524 846 l 443 964 l 363 846 l 190 846 l 347 1056 l 539 1056 l 696 846 m 443 757 b 851 375 688 757 851 606 b 443 -8 851 144 688 -8 b 33 375 197 -8 33 144 b 443 757 33 606 197 757 m 443 567 b 275 372 343 567 275 488 b 443 178 275 256 343 178 b 610 372 542 178 610 256 b 443 567 610 488 542 567 "},"ö":{"ha":885,"x_min":0,"x_max":0,"o":"m 310 1068 b 418 960 372 1068 418 1024 b 310 853 418 897 372 853 b 201 960 247 853 201 897 b 310 1068 201 1024 247 1068 m 578 1068 b 686 960 640 1068 686 1024 b 578 853 686 897 640 853 b 469 960 515 853 469 897 b 578 1068 469 1024 515 1068 m 443 757 b 851 375 688 757 851 606 b 443 -8 851 144 688 -8 b 33 375 197 -8 33 144 b 443 757 33 606 197 757 m 443 567 b 275 372 343 567 275 488 b 443 178 275 256 343 178 b 610 372 542 178 610 256 b 443 567 610 488 542 567 "},"ò":{"ha":885,"x_min":0,"x_max":0,"o":"m 382 833 l 201 990 l 418 1067 l 565 833 m 443 757 b 851 375 688 757 851 606 b 443 -8 851 144 688 -8 b 33 375 197 -8 33 144 b 443 757 33 606 197 757 m 443 567 b 275 372 343 567 275 488 b 443 178 275 256 343 178 b 610 372 542 178 610 256 b 443 567 610 488 542 567 "},"ő":{"ha":885,"x_min":0,"x_max":0,"o":"m 376 831 l 201 831 l 319 1068 l 501 1001 m 646 831 l 471 831 l 589 1068 l 771 1001 m 443 757 b 851 375 688 757 851 606 b 443 -8 851 144 688 -8 b 33 375 197 -8 33 144 b 443 757 33 606 197 757 m 443 567 b 275 372 343 567 275 488 b 443 178 275 256 343 178 b 610 372 542 178 610 256 b 443 567 610 488 542 567 "},"ō":{"ha":885,"x_min":0,"x_max":0,"o":"m 249 878 l 249 1039 l 635 1039 l 635 878 m 443 757 b 851 375 688 757 851 606 b 443 -8 851 144 688 -8 b 33 375 197 -8 33 144 b 443 757 33 606 197 757 m 443 567 b 275 372 343 567 275 488 b 443 178 275 256 343 178 b 610 372 542 178 610 256 b 443 567 610 488 542 567 "},"ø":{"ha":885,"x_min":0,"x_max":0,"o":"m 608 731 b 851 375 758 678 851 549 b 443 -8 851 144 688 -8 b 369 -4 418 -8 393 -7 l 307 -197 l 208 -197 l 278 18 b 33 375 126 71 33 201 b 443 757 33 606 197 757 b 517 753 468 757 493 756 l 575 932 l 674 932 m 260 372 b 335 193 260 293 288 229 l 463 585 l 443 586 b 260 372 333 586 260 500 m 443 158 b 625 372 551 158 625 243 b 550 551 625 451 596 514 l 422 160 "},"õ":{"ha":885,"x_min":0,"x_max":0,"o":"m 340 1079 b 500 1014 422 1079 461 1014 b 543 1072 529 1014 543 1033 l 689 1072 b 544 857 689 926 642 857 b 383 922 460 857 424 922 b 342 863 356 922 342 903 l 194 863 b 340 1079 194 1008 243 1079 m 443 757 b 851 375 688 757 851 606 b 443 -8 851 144 688 -8 b 33 375 197 -8 33 144 b 443 757 33 606 197 757 m 443 567 b 275 372 343 567 275 488 b 443 178 275 256 343 178 b 610 372 542 178 610 256 b 443 567 610 488 542 567 "},"œ":{"ha":1415,"x_min":0,"x_max":0,"o":"m 993 757 b 1381 322 1242 757 1393 585 l 838 322 b 1019 171 858 225 926 171 b 1201 247 1086 171 1150 197 l 1328 124 b 999 -8 1250 40 1138 -8 b 724 117 874 -8 782 38 b 443 -8 663 38 567 -8 b 33 375 197 -8 33 144 b 443 757 33 606 197 757 b 725 631 568 757 664 711 b 993 757 782 711 874 757 m 1142 438 b 994 596 1142 529 1082 596 b 836 438 910 596 851 531 m 443 178 b 610 372 542 178 610 256 b 443 567 610 488 542 567 b 275 372 343 567 275 488 b 443 178 275 256 343 178 "},"p":{"ha":951,"x_min":0,"x_max":0,"o":"m 567 757 b 918 371 778 757 918 603 b 572 -8 918 143 782 -8 b 343 100 475 -8 396 31 l 343 -269 l 103 -269 l 103 749 l 343 749 l 343 650 b 567 757 396 718 472 757 m 508 182 b 676 378 608 182 676 263 b 508 572 676 492 608 572 b 343 378 411 572 343 492 b 508 182 343 261 411 182 "},"þ":{"ha":951,"x_min":0,"x_max":0,"o":"m 567 757 b 918 371 778 757 918 603 b 572 -8 918 143 782 -8 b 343 100 475 -8 396 31 l 343 -269 l 103 -269 l 103 1031 l 343 1031 l 343 650 b 567 757 396 718 472 757 m 508 182 b 676 378 608 182 676 263 b 508 572 676 492 608 572 b 343 378 411 572 343 492 b 508 182 343 261 411 182 "},"q":{"ha":953,"x_min":0,"x_max":0,"o":"m 850 -269 l 610 -269 l 610 99 b 385 -10 557 29 481 -10 b 35 378 174 -10 35 146 b 379 758 35 607 172 758 b 610 650 478 758 557 719 l 610 749 l 850 749 m 443 176 b 610 372 543 176 610 257 b 443 567 610 488 543 567 b 275 372 343 567 276 488 b 443 176 276 257 343 176 "},"r":{"ha":593,"x_min":0,"x_max":0,"o":"m 336 622 b 579 760 388 710 472 758 l 579 543 b 336 385 440 556 349 490 l 336 0 l 96 0 l 96 749 l 336 749 "},"ŕ":{"ha":593,"x_min":0,"x_max":0,"o":"m 192 833 l 339 1067 l 556 990 l 375 833 m 336 622 b 579 760 388 710 472 758 l 579 543 b 336 385 440 556 349 490 l 336 0 l 96 0 l 96 749 l 336 749 "},"ř":{"ha":593,"x_min":0,"x_max":0,"o":"m 33 1057 l 221 1057 l 306 929 l 390 1057 l 578 1057 l 410 829 l 201 829 m 336 622 b 579 760 388 710 472 758 l 579 543 b 336 385 440 556 349 490 l 336 0 l 96 0 l 96 749 l 336 749 "},"ŗ":{"ha":593,"x_min":0,"x_max":0,"o":"m 336 622 b 579 760 388 710 472 758 l 579 543 b 336 385 440 556 349 490 l 336 0 l 96 0 l 96 749 l 336 749 m 218 -57 b 332 -171 279 -57 332 -97 b 301 -262 332 -206 319 -236 l 200 -410 l 86 -410 l 149 -262 b 103 -172 117 -240 103 -208 b 218 -57 103 -104 151 -57 "},"s":{"ha":713,"x_min":0,"x_max":0,"o":"m 364 760 b 672 675 472 760 581 729 l 590 519 b 354 594 500 568 417 594 b 281 543 311 594 281 578 b 674 229 281 440 675 490 b 358 -10 674 75 539 -10 b 22 96 233 -10 113 26 l 99 249 b 364 156 183 189 281 156 b 446 207 411 156 446 172 b 60 522 446 317 58 260 b 364 760 60 676 190 760 "},"ś":{"ha":713,"x_min":0,"x_max":0,"o":"m 432 833 l 249 833 l 396 1067 l 613 990 m 364 760 b 672 675 472 760 581 729 l 590 519 b 354 594 500 568 417 594 b 281 543 311 594 281 578 b 674 229 281 440 675 490 b 358 -10 674 75 539 -10 b 22 96 233 -10 113 26 l 99 249 b 364 156 183 189 281 156 b 446 207 411 156 446 172 b 60 522 446 317 58 260 b 364 760 60 676 190 760 "},"š":{"ha":713,"x_min":0,"x_max":0,"o":"m 279 1057 l 364 929 l 449 1057 l 636 1057 l 468 829 l 260 829 l 92 1057 m 364 760 b 672 675 472 760 581 729 l 590 519 b 354 594 500 568 417 594 b 281 543 311 594 281 578 b 674 229 281 440 675 490 b 358 -10 674 75 539 -10 b 22 96 233 -10 113 26 l 99 249 b 364 156 183 189 281 156 b 446 207 411 156 446 172 b 60 522 446 317 58 260 b 364 760 60 676 190 760 "},"ş":{"ha":713,"x_min":0,"x_max":0,"o":"m 281 543 b 674 229 281 440 675 490 b 447 -3 674 101 582 22 l 413 -71 b 507 -183 469 -86 507 -126 b 333 -326 507 -271 435 -326 b 201 -283 290 -326 240 -310 l 246 -185 b 314 -212 264 -201 290 -212 b 372 -161 350 -212 372 -189 b 308 -111 372 -133 350 -111 b 258 -117 294 -111 275 -114 l 311 -8 b 22 96 203 0 101 35 l 99 249 b 364 156 183 189 281 156 b 446 207 411 156 446 172 b 60 522 446 317 58 260 b 364 760 60 676 190 760 b 672 675 472 760 581 729 l 590 519 b 354 594 500 568 417 594 b 281 543 311 594 281 578 "},"ș":{"ha":713,"x_min":0,"x_max":0,"o":"m 281 543 b 674 229 281 440 675 490 b 358 -10 674 75 539 -10 b 22 96 233 -10 113 26 l 99 249 b 364 156 183 189 281 156 b 446 207 411 156 446 172 b 60 522 446 317 58 260 b 364 760 60 676 190 760 b 672 675 472 760 581 729 l 590 519 b 354 594 500 568 417 594 b 281 543 311 594 281 578 m 364 -57 b 478 -171 425 -57 478 -97 b 447 -262 478 -206 465 -236 l 346 -410 l 232 -410 l 294 -262 b 249 -172 263 -240 249 -208 b 364 -57 249 -104 297 -57 "},"ß":{"ha":919,"x_min":0,"x_max":0,"o":"m 457 1042 b 815 764 672 1042 815 932 b 682 532 815 667 763 576 b 874 297 794 501 874 417 b 488 0 874 119 722 0 l 419 0 l 419 171 l 476 171 b 642 299 582 171 642 219 b 460 424 642 381 575 424 l 435 424 l 435 593 b 583 729 531 593 583 642 b 458 861 583 814 538 861 b 319 700 369 861 319 803 l 319 0 l 81 0 l 81 683 b 457 1042 81 901 225 1042 "},"t":{"ha":604,"x_min":0,"x_max":0,"o":"m 579 40 b 379 -11 525 8 451 -11 b 131 226 235 -11 131 71 l 131 557 l 26 557 l 26 714 l 131 714 l 131 922 l 369 922 l 369 715 l 565 715 l 565 557 l 369 557 l 369 264 b 439 182 369 206 394 181 b 532 207 464 182 496 192 "},"ť":{"ha":594,"x_min":0,"x_max":0,"o":"m 558 1157 b 672 1043 619 1157 672 1117 b 642 951 672 1008 660 979 l 540 804 l 426 804 l 489 953 b 443 1043 457 974 443 1007 b 558 1157 443 1110 492 1157 m 439 182 b 532 207 464 182 496 192 l 579 40 b 379 -11 525 8 451 -11 b 131 226 235 -11 131 71 l 131 557 l 26 557 l 26 714 l 131 714 l 131 922 l 369 922 l 369 715 l 565 715 l 565 557 l 369 557 l 369 264 b 439 182 369 206 394 181 "},"ţ":{"ha":604,"x_min":0,"x_max":0,"o":"m 418 -71 b 513 -183 475 -86 513 -126 b 339 -326 513 -271 440 -326 b 207 -283 296 -326 246 -310 l 251 -185 b 319 -212 269 -201 296 -212 b 378 -161 356 -212 378 -189 b 314 -111 378 -133 356 -111 b 264 -117 300 -111 281 -114 l 317 -6 b 131 226 206 15 131 94 l 131 557 l 26 557 l 26 714 l 131 714 l 131 922 l 369 922 l 369 715 l 565 715 l 565 557 l 369 557 l 369 264 b 439 182 369 206 394 181 b 532 207 464 182 496 192 l 579 40 b 451 -4 543 19 499 3 "},"ț":{"ha":604,"x_min":0,"x_max":0,"o":"m 579 40 b 379 -11 525 8 451 -11 b 131 226 235 -11 131 71 l 131 557 l 26 557 l 26 714 l 131 714 l 131 922 l 369 922 l 369 715 l 565 715 l 565 557 l 369 557 l 369 264 b 439 182 369 206 394 181 b 532 207 464 182 496 192 m 368 -57 b 482 -171 429 -57 482 -97 b 451 -262 482 -206 469 -236 l 350 -410 l 236 -410 l 299 -262 b 253 -172 267 -240 253 -208 b 368 -57 253 -104 301 -57 "},"u":{"ha":921,"x_min":0,"x_max":0,"o":"m 825 0 l 585 0 l 585 124 b 342 -10 533 35 450 -10 b 74 276 179 -10 74 101 l 74 749 l 314 749 l 314 344 b 439 201 314 256 363 201 b 585 379 531 203 585 278 l 585 749 l 825 749 "},"ú":{"ha":921,"x_min":0,"x_max":0,"o":"m 333 833 l 481 1067 l 697 990 l 517 833 m 825 0 l 585 0 l 585 124 b 342 -10 533 35 450 -10 b 74 276 179 -10 74 101 l 74 749 l 314 749 l 314 344 b 439 201 314 256 363 201 b 585 379 531 203 585 278 l 585 749 l 825 749 "},"û":{"ha":921,"x_min":0,"x_max":0,"o":"m 201 847 l 358 1057 l 550 1057 l 707 847 l 535 847 l 454 965 l 374 847 m 825 0 l 585 0 l 585 124 b 342 -10 533 35 450 -10 b 74 276 179 -10 74 101 l 74 749 l 314 749 l 314 344 b 439 201 314 256 363 201 b 585 379 531 203 585 278 l 585 749 l 825 749 "},"ü":{"ha":921,"x_min":0,"x_max":0,"o":"m 321 853 b 213 960 258 853 213 897 b 321 1068 213 1024 258 1068 b 429 960 383 1068 429 1024 b 321 853 429 897 383 853 m 589 853 b 481 960 526 853 481 897 b 589 1068 481 1024 526 1068 b 697 960 651 1068 697 1024 b 589 853 697 897 651 853 m 825 0 l 585 0 l 585 124 b 342 -10 533 35 450 -10 b 74 276 179 -10 74 101 l 74 749 l 314 749 l 314 344 b 439 201 314 256 363 201 b 585 379 531 203 585 278 l 585 749 l 825 749 "},"ù":{"ha":921,"x_min":0,"x_max":0,"o":"m 213 990 l 429 1067 l 576 833 l 393 833 m 825 0 l 585 0 l 585 124 b 342 -10 533 35 450 -10 b 74 276 179 -10 74 101 l 74 749 l 314 749 l 314 344 b 439 201 314 256 363 201 b 585 379 531 203 585 278 l 585 749 l 825 749 "},"ű":{"ha":921,"x_min":0,"x_max":0,"o":"m 213 832 l 331 1069 l 513 1003 l 388 832 m 600 1069 l 782 1003 l 657 832 l 482 832 m 825 0 l 585 0 l 585 124 b 342 -10 533 35 450 -10 b 74 276 179 -10 74 101 l 74 749 l 314 749 l 314 344 b 439 201 314 256 363 201 b 585 379 531 203 585 278 l 585 749 l 825 749 "},"ū":{"ha":921,"x_min":0,"x_max":0,"o":"m 261 878 l 261 1039 l 647 1039 l 647 878 m 825 0 l 585 0 l 585 124 b 342 -10 533 35 450 -10 b 74 276 179 -10 74 101 l 74 749 l 314 749 l 314 344 b 439 201 314 256 363 201 b 585 379 531 203 585 278 l 585 749 l 825 749 "},"ų":{"ha":917,"x_min":0,"x_max":0,"o":"m 772 0 b 711 -128 732 -57 711 -101 b 742 -161 711 -150 724 -161 b 801 -118 763 -161 783 -144 l 863 -189 b 713 -282 828 -249 772 -282 b 590 -167 657 -282 590 -253 b 656 0 590 -112 617 -58 l 592 0 l 592 124 b 346 -10 540 35 456 -10 b 75 276 182 -10 75 101 l 75 749 l 314 749 l 314 344 b 444 201 314 256 364 201 b 592 364 532 203 586 269 l 592 749 l 831 749 l 831 0 "},"ů":{"ha":921,"x_min":0,"x_max":0,"o":"m 454 797 b 286 964 361 797 286 872 b 454 1131 286 1056 361 1131 b 622 964 547 1131 622 1056 b 454 797 622 872 547 797 m 454 1036 b 381 964 414 1036 381 1003 b 454 892 381 924 414 892 b 528 964 494 892 528 924 b 454 1036 528 1003 494 1036 m 825 0 l 585 0 l 585 124 b 342 -10 533 35 450 -10 b 74 276 179 -10 74 101 l 74 749 l 314 749 l 314 344 b 439 201 314 256 363 201 b 585 379 531 203 585 278 l 585 749 l 825 749 "},"v":{"ha":793,"x_min":0,"x_max":0,"o":"m 275 0 l -7 749 l 240 749 l 401 219 l 564 749 l 803 749 l 521 0 "},"w":{"ha":1301,"x_min":0,"x_max":0,"o":"m 800 0 l 653 475 l 506 0 l 267 0 l -7 749 l 238 749 l 392 231 l 542 749 l 771 749 l 925 231 l 1076 749 l 1311 749 l 1038 0 "},"ẃ":{"ha":1301,"x_min":0,"x_max":0,"o":"m 714 833 l 531 833 l 678 1067 l 894 990 m 800 0 l 653 475 l 506 0 l 267 0 l -7 749 l 238 749 l 392 231 l 542 749 l 771 749 l 925 231 l 1076 749 l 1311 749 l 1038 0 "},"ŵ":{"ha":1301,"x_min":0,"x_max":0,"o":"m 732 847 l 651 965 l 571 847 l 399 847 l 556 1057 l 747 1057 l 904 847 m 800 0 l 653 475 l 506 0 l 267 0 l -7 749 l 238 749 l 392 231 l 542 749 l 771 749 l 925 231 l 1076 749 l 1311 749 l 1038 0 "},"ẅ":{"ha":1301,"x_min":0,"x_max":0,"o":"m 518 1068 b 626 960 581 1068 626 1024 b 518 853 626 897 581 853 b 410 960 456 853 410 897 b 518 1068 410 1024 456 1068 m 786 1068 b 894 960 849 1068 894 1024 b 786 853 894 897 849 853 b 678 960 724 853 678 897 b 786 1068 678 1024 724 1068 m 800 0 l 653 475 l 506 0 l 267 0 l -7 749 l 238 749 l 392 231 l 542 749 l 771 749 l 925 231 l 1076 749 l 1311 749 l 1038 0 "},"ẁ":{"ha":1301,"x_min":0,"x_max":0,"o":"m 590 833 l 410 990 l 626 1067 l 774 833 m 800 0 l 653 475 l 506 0 l 267 0 l -7 749 l 238 749 l 392 231 l 542 749 l 771 749 l 925 231 l 1076 749 l 1311 749 l 1038 0 "},"x":{"ha":842,"x_min":0,"x_max":0,"o":"m 556 749 l 818 749 l 581 385 l 835 0 l 558 0 l 422 235 l 269 0 l 6 0 l 261 383 l 22 749 l 297 749 l 422 533 "},"y":{"ha":806,"x_min":0,"x_max":0,"o":"m 492 -78 b 203 -281 436 -214 342 -281 b -15 -204 119 -281 51 -256 l 85 -40 b 183 -81 119 -68 149 -81 b 276 -21 226 -81 257 -61 l 294 17 l -17 749 l 231 749 l 414 251 l 576 749 l 815 749 "},"ý":{"ha":806,"x_min":0,"x_max":0,"o":"m 467 833 l 283 833 l 431 1067 l 647 990 m 492 -78 b 203 -281 436 -214 342 -281 b -15 -204 119 -281 51 -256 l 85 -40 b 183 -81 119 -68 149 -81 b 276 -21 226 -81 257 -61 l 294 17 l -17 749 l 231 749 l 414 251 l 576 749 l 815 749 "},"ŷ":{"ha":806,"x_min":0,"x_max":0,"o":"m 485 847 l 404 965 l 324 847 l 151 847 l 308 1057 l 500 1057 l 657 847 m 492 -78 b 203 -281 436 -214 342 -281 b -15 -204 119 -281 51 -256 l 85 -40 b 183 -81 119 -68 149 -81 b 276 -21 226 -81 257 -61 l 294 17 l -17 749 l 231 749 l 414 251 l 576 749 l 815 749 "},"ÿ":{"ha":806,"x_min":0,"x_max":0,"o":"m 271 1068 b 379 960 333 1068 379 1024 b 271 853 379 897 333 853 b 163 960 208 853 163 897 b 271 1068 163 1024 208 1068 m 539 1068 b 647 960 601 1068 647 1024 b 539 853 647 897 601 853 b 431 960 476 853 431 897 b 539 1068 431 1024 476 1068 m 492 -78 b 203 -281 436 -214 342 -281 b -15 -204 119 -281 51 -256 l 85 -40 b 183 -81 119 -68 149 -81 b 276 -21 226 -81 257 -61 l 294 17 l -17 749 l 231 749 l 414 251 l 576 749 l 815 749 "},"ỳ":{"ha":806,"x_min":0,"x_max":0,"o":"m 342 833 l 161 990 l 378 1067 l 525 833 m 492 -78 b 203 -281 436 -214 342 -281 b -15 -204 119 -281 51 -256 l 85 -40 b 183 -81 119 -68 149 -81 b 276 -21 226 -81 257 -61 l 294 17 l -17 749 l 231 749 l 414 251 l 576 749 l 815 749 "},"z":{"ha":768,"x_min":0,"x_max":0,"o":"m 349 181 l 728 181 l 728 0 l 47 0 l 47 144 l 415 568 l 61 568 l 61 749 l 715 749 l 715 604 "},"ź":{"ha":768,"x_min":0,"x_max":0,"o":"m 447 833 l 264 833 l 411 1067 l 628 990 m 349 181 l 728 181 l 728 0 l 47 0 l 47 144 l 415 568 l 61 568 l 61 749 l 715 749 l 715 604 "},"ž":{"ha":768,"x_min":0,"x_max":0,"o":"m 293 1056 l 378 928 l 463 1056 l 650 1056 l 482 828 l 274 828 l 106 1056 m 349 181 l 728 181 l 728 0 l 47 0 l 47 144 l 415 568 l 61 568 l 61 749 l 715 749 l 715 604 "},"ż":{"ha":768,"x_min":0,"x_max":0,"o":"m 385 1090 b 511 964 458 1090 511 1038 b 385 836 511 889 458 836 b 258 964 311 836 258 889 b 385 1090 258 1038 311 1090 m 349 181 l 728 181 l 728 0 l 47 0 l 47 144 l 415 568 l 61 568 l 61 749 l 715 749 l 715 604 "},"ﬁ":{"ha":968,"x_min":0,"x_max":0,"o":"m 753 836 b 626 964 679 836 626 889 b 753 1090 626 1038 679 1090 b 881 964 828 1090 881 1038 b 753 836 881 889 828 836 m 140 785 b 426 1042 140 953 267 1042 b 572 1013 478 1042 533 1031 l 564 822 b 464 851 532 840 494 851 b 378 769 414 851 378 826 l 378 722 l 547 722 l 547 564 l 378 564 l 378 0 l 140 0 l 140 564 l 39 564 l 39 722 l 140 722 m 872 749 l 872 0 l 633 0 l 633 749 "},"ﬂ":{"ha":992,"x_min":0,"x_max":0,"o":"m 140 794 b 426 1044 140 944 256 1046 b 574 1018 478 1044 535 1035 l 565 826 b 476 858 539 846 506 857 b 378 760 418 860 378 819 l 378 722 l 549 722 l 547 565 l 378 565 l 378 0 l 140 0 l 140 565 l 39 565 l 40 722 l 140 722 m 889 0 l 649 0 l 649 1031 l 889 1031 "},"ª":{"ha":546,"x_min":0,"x_max":0,"o":"m 283 1090 b 493 928 415 1090 494 1031 l 493 636 l 332 636 l 332 693 b 186 629 301 651 251 629 b 29 768 89 629 29 685 b 211 901 29 854 94 901 l 332 901 l 332 908 b 244 972 332 949 303 972 b 97 939 204 972 151 960 l 58 1044 b 283 1090 135 1074 214 1090 m 243 731 b 332 779 281 731 313 746 l 332 826 l 246 826 b 185 781 207 826 185 811 b 243 731 185 750 206 731 "},"º":{"ha":574,"x_min":0,"x_max":0,"o":"m 286 1090 b 546 860 443 1090 546 999 b 286 631 546 722 443 631 b 28 860 131 631 28 722 b 286 1090 28 999 131 1090 m 286 964 b 193 858 231 964 193 922 b 286 753 193 794 231 753 b 379 858 342 753 379 794 b 286 964 379 922 342 964 "},"Δ":{"ha":1069,"x_min":0,"x_max":0,"o":"m -7 0 l 413 972 l 667 972 l 1076 0 m 532 726 l 318 179 l 744 179 "},"Ω":{"ha":1189,"x_min":0,"x_max":0,"o":"m 594 985 b 1094 529 883 985 1094 792 b 936 193 1094 411 1029 271 l 1179 193 l 1179 0 l 694 0 l 694 179 b 876 508 800 249 876 389 b 594 783 876 668 757 783 b 314 508 432 783 314 668 b 496 178 314 389 390 249 l 496 0 l 10 0 l 10 193 l 254 193 b 94 529 161 271 94 410 b 594 985 94 792 306 985 "},"µ":{"ha":950,"x_min":0,"x_max":0,"o":"m 854 0 l 614 0 l 614 124 b 371 -10 563 35 479 -10 l 343 -8 l 343 -269 l 103 -269 l 103 749 l 343 749 l 343 344 b 468 201 343 256 392 201 b 614 379 560 203 614 278 l 614 749 l 854 749 "},"π":{"ha":1013,"x_min":0,"x_max":0,"o":"m 822 0 l 624 0 l 624 581 l 500 581 l 438 0 l 240 0 l 301 581 l 258 581 b 164 493 203 581 163 544 b 194 397 164 467 176 429 l 29 340 b -22 533 -1 397 -22 472 b 228 749 -24 657 82 749 l 996 749 l 997 581 l 822 581 "},"⁄":{"ha":163,"x_min":0,"x_max":0,"o":"m 313 974 l 538 974 l -157 0 l -382 0 "},"½":{"ha":1253,"x_min":0,"x_max":0,"o":"m 788 974 l 1013 974 l 318 0 l 93 0 m 124 843 l 14 843 l 14 972 l 293 972 l 293 393 l 124 393 m 992 586 b 1201 432 1114 586 1201 525 b 1086 239 1201 368 1154 304 l 972 125 l 1217 125 l 1217 0 l 757 0 l 757 104 l 972 318 b 1025 410 1001 350 1025 385 b 965 454 1025 438 1003 454 b 801 381 918 454 857 425 l 738 497 b 992 586 817 553 903 586 "},"¼":{"ha":1224,"x_min":0,"x_max":0,"o":"m 788 974 l 1013 974 l 318 0 l 93 0 m 124 843 l 14 843 l 14 972 l 293 972 l 293 393 l 124 393 m 968 361 l 1125 361 l 1125 238 l 1206 238 l 1206 121 l 1125 121 l 1125 0 l 968 0 l 968 121 l 681 121 l 681 231 l 867 579 l 1029 579 l 853 238 l 968 238 "},"¾":{"ha":1306,"x_min":0,"x_max":0,"o":"m 871 974 l 1096 974 l 401 0 l 176 0 m 329 735 b 474 576 413 721 474 665 b 239 386 474 465 382 386 b 7 458 153 386 63 415 l 75 582 b 225 507 119 532 171 507 b 308 575 278 507 308 532 b 224 640 308 618 278 640 l 124 640 l 124 725 l 254 853 l 36 853 l 36 971 l 446 971 l 446 878 l 301 740 m 1050 361 l 1207 361 l 1207 238 l 1288 238 l 1288 121 l 1207 121 l 1207 0 l 1050 0 l 1050 121 l 763 121 l 763 231 l 949 579 l 1111 579 l 935 238 l 1050 238 "},"⅛":{"ha":1243,"x_min":0,"x_max":0,"o":"m 788 974 l 1013 974 l 318 0 l 93 0 m 124 843 l 14 843 l 14 972 l 293 972 l 293 393 l 124 393 m 953 586 b 1175 428 1089 586 1175 524 b 1103 310 1175 381 1147 336 b 1207 164 1167 283 1207 226 b 954 -7 1207 58 1108 -7 b 701 161 800 -7 701 58 b 814 310 701 226 746 283 b 733 433 765 338 733 385 b 953 586 733 526 819 586 m 954 479 b 875 419 903 479 875 458 b 954 361 875 382 903 361 b 1033 419 1006 361 1033 382 b 954 479 1033 458 1006 479 m 954 244 b 861 178 894 244 861 221 b 954 111 861 133 894 111 b 1047 178 1014 111 1047 133 b 954 244 1047 221 1014 244 "},"⅜":{"ha":1325,"x_min":0,"x_max":0,"o":"m 871 974 l 1096 974 l 401 0 l 176 0 m 329 735 b 474 576 413 721 474 665 b 239 386 474 465 382 386 b 7 458 153 386 63 415 l 75 582 b 225 507 119 532 171 507 b 308 575 278 507 308 532 b 224 640 308 618 278 640 l 124 640 l 124 725 l 254 853 l 36 853 l 36 971 l 446 971 l 446 878 l 301 740 m 1035 586 b 1257 428 1171 586 1257 524 b 1185 310 1257 381 1229 336 b 1289 164 1249 283 1289 226 b 1036 -7 1289 58 1190 -7 b 783 161 882 -7 783 58 b 896 310 783 226 828 283 b 815 433 847 338 815 385 b 1035 586 815 526 901 586 m 1036 479 b 957 419 985 479 957 458 b 1036 361 957 382 985 361 b 1115 419 1088 361 1115 382 b 1036 479 1115 458 1088 479 m 1036 244 b 943 178 976 244 943 221 b 1036 111 943 133 976 111 b 1129 178 1096 111 1129 133 b 1036 244 1129 221 1096 244 "},"⅝":{"ha":1346,"x_min":0,"x_max":0,"o":"m 892 974 l 1117 974 l 422 0 l 197 0 m 225 757 b 271 760 236 758 261 760 b 503 589 413 760 503 693 b 257 386 503 467 407 386 b 18 460 176 386 82 417 l 86 585 b 238 508 131 533 183 508 b 321 578 292 508 321 532 b 238 640 321 618 292 640 b 71 636 208 640 107 639 l 71 972 l 476 972 l 476 847 l 225 847 m 1056 586 b 1278 428 1192 586 1278 524 b 1206 310 1278 381 1250 336 b 1310 164 1269 283 1310 226 b 1057 -7 1310 58 1211 -7 b 804 161 903 -7 804 58 b 917 310 804 226 849 283 b 836 433 868 338 836 385 b 1056 586 836 526 922 586 m 1057 479 b 978 419 1006 479 978 458 b 1057 361 978 382 1006 361 b 1136 419 1108 361 1136 382 b 1057 479 1136 458 1108 479 m 1057 244 b 964 178 997 244 964 221 b 1057 111 964 133 997 111 b 1150 178 1117 111 1150 133 b 1057 244 1150 221 1117 244 "},"⅞":{"ha":1307,"x_min":0,"x_max":0,"o":"m 851 974 l 1076 974 l 382 0 l 157 0 m 121 393 l 332 847 l 186 847 l 186 765 l 38 765 l 38 972 l 518 972 l 518 863 l 299 393 m 1017 586 b 1239 428 1153 586 1239 524 b 1167 310 1239 381 1211 336 b 1271 164 1231 283 1271 226 b 1018 -7 1271 58 1172 -7 b 765 161 864 -7 765 58 b 878 310 765 226 810 283 b 797 433 829 338 797 385 b 1017 586 797 526 883 586 m 1018 479 b 939 419 967 479 939 458 b 1018 361 939 382 967 361 b 1097 419 1069 361 1097 382 b 1018 479 1097 458 1069 479 m 1018 244 b 925 178 958 244 925 221 b 1018 111 925 133 958 111 b 1111 178 1078 111 1111 133 b 1018 244 1111 221 1078 244 "},"¹":{"ha":381,"x_min":0,"x_max":0,"o":"m 124 843 l 14 843 l 14 972 l 293 972 l 293 393 l 124 393 "},"²":{"ha":540,"x_min":0,"x_max":0,"o":"m 279 979 b 489 826 401 979 489 918 b 374 632 489 761 442 697 l 260 519 l 504 519 l 504 393 l 44 393 l 44 497 l 260 713 b 313 803 289 743 313 779 b 253 847 313 832 290 847 b 89 774 206 847 144 819 l 25 890 b 279 979 104 946 190 979 "},"³":{"ha":507,"x_min":0,"x_max":0,"o":"m 329 735 b 474 576 413 721 474 665 b 239 386 474 465 382 386 b 7 458 153 386 63 415 l 75 582 b 225 507 119 532 171 507 b 308 575 278 507 308 532 b 224 640 308 618 278 640 l 124 640 l 124 725 l 254 853 l 36 853 l 36 971 l 446 971 l 446 878 l 301 740 "},"*":{"ha":525,"x_min":0,"x_max":0,"o":"m 322 533 l 203 533 l 206 667 l 92 599 l 32 701 l 147 767 l 32 829 l 92 936 l 204 867 l 203 999 l 322 999 l 321 867 l 435 933 l 494 829 l 376 767 l 494 701 l 435 596 l 319 667 "},"\\":{"ha":632,"x_min":0,"x_max":0,"o":"m 668 -154 l 467 -154 l 18 1126 l 219 1126 "},"•":{"ha":454,"x_min":0,"x_max":0,"o":"m 226 557 b 401 383 329 557 401 485 b 226 207 401 281 329 207 b 53 383 125 207 53 281 b 226 557 53 485 125 557 "},":":{"ha":333,"x_min":0,"x_max":0,"o":"m 168 633 b 285 518 236 633 285 586 b 168 401 285 449 236 401 b 53 518 100 401 53 449 b 168 633 53 586 100 633 m 168 221 b 285 106 236 221 285 174 b 168 -11 285 36 236 -11 b 53 106 100 -11 53 36 b 168 221 53 174 100 221 "},",":{"ha":335,"x_min":0,"x_max":0,"o":"m 169 219 b 283 106 231 219 283 179 b 253 14 283 71 271 42 l 151 -133 l 38 -133 l 100 15 b 54 106 68 36 54 69 b 169 219 54 172 103 219 "},"…":{"ha":944,"x_min":0,"x_max":0,"o":"m 165 217 b 279 103 232 217 279 169 b 165 -11 279 36 232 -11 b 53 103 100 -11 53 36 b 165 217 53 169 100 217 m 471 217 b 585 103 538 217 585 169 b 471 -11 585 36 538 -11 b 358 103 406 -11 358 36 b 471 217 358 169 406 217 m 776 217 b 890 103 843 217 890 169 b 776 -11 890 36 843 -11 b 664 103 711 -11 664 36 b 776 217 664 169 711 217 "},"!":{"ha":353,"x_min":0,"x_max":0,"o":"m 258 333 l 114 333 l 72 719 l 72 967 l 300 967 l 300 719 m 182 221 b 299 106 250 221 299 174 b 182 -11 299 36 250 -11 b 67 106 115 -11 67 36 b 182 221 67 174 115 221 "},"¡":{"ha":353,"x_min":0,"x_max":0,"o":"m 189 526 b 72 642 119 526 72 574 b 189 760 72 711 119 760 b 304 642 256 760 304 711 b 189 526 304 574 256 526 m 113 414 l 257 414 l 299 29 l 299 -219 l 71 -219 l 71 29 "},"#":{"ha":1021,"x_min":0,"x_max":0,"o":"m 767 382 l 954 382 l 935 217 l 746 217 l 719 0 l 547 0 l 574 217 l 381 217 l 354 0 l 182 0 l 208 217 l 21 217 l 40 382 l 229 382 l 253 581 l 68 581 l 86 746 l 274 746 l 301 972 l 474 972 l 446 746 l 640 746 l 668 972 l 840 972 l 813 746 l 1000 746 l 982 581 l 792 581 m 426 581 l 401 382 l 594 382 l 619 581 "},".":{"ha":338,"x_min":0,"x_max":0,"o":"m 168 221 b 285 106 236 221 285 174 b 168 -11 285 36 236 -11 b 53 106 100 -11 53 36 b 168 221 53 174 100 221 "},"·":{"ha":333,"x_min":0,"x_max":0,"o":"m 165 515 b 279 401 232 515 279 468 b 165 288 279 335 232 288 b 53 401 100 288 53 335 b 165 515 53 468 100 515 "},"?":{"ha":656,"x_min":0,"x_max":0,"o":"m 4 661 b 321 976 7 860 125 976 b 619 735 506 976 619 890 b 407 332 619 524 407 499 l 228 332 b 399 696 228 547 399 558 b 299 786 399 758 361 786 b 189 660 229 786 190 746 m 314 221 b 431 106 382 221 431 174 b 314 -11 431 36 382 -11 b 199 106 246 -11 199 36 b 314 221 199 174 246 221 "},"¿":{"ha":656,"x_min":0,"x_max":0,"o":"m 342 528 b 225 643 274 528 225 575 b 342 760 225 713 274 760 b 457 643 408 760 457 713 b 342 528 457 575 408 528 m 651 88 b 335 -228 649 -111 531 -228 b 35 14 150 -228 35 -142 b 249 417 35 225 249 250 l 428 417 b 256 51 428 201 256 190 b 357 -37 256 -10 293 -37 b 467 89 426 -37 464 3 "},"\"":{"ha":610,"x_min":0,"x_max":0,"o":"m 83 593 l 83 972 l 264 972 l 264 593 m 346 593 l 346 972 l 526 972 l 526 593 "},"'":{"ha":347,"x_min":0,"x_max":0,"o":"m 83 593 l 83 972 l 264 972 l 264 593 "},";":{"ha":336,"x_min":0,"x_max":0,"o":"m 168 401 b 53 518 100 401 53 449 b 168 633 53 586 100 633 b 285 518 236 633 285 586 b 168 401 285 449 236 401 m 169 219 b 283 106 231 219 283 179 b 253 14 283 71 271 42 l 151 -133 l 38 -133 l 100 15 b 54 106 68 36 54 69 b 169 219 54 172 103 219 "},"/":{"ha":490,"x_min":0,"x_max":0,"o":"m -50 -154 l 399 1126 l 600 1126 l 151 -154 "},"_":{"ha":810,"x_min":0,"x_max":0,"o":"m 0 -283 l 0 -153 l 810 -153 l 810 -283 "},"{":{"ha":494,"x_min":0,"x_max":0,"o":"m 353 596 b 236 429 353 496 322 449 b 353 261 322 408 353 361 l 353 93 b 475 3 353 28 379 3 l 475 -175 l 382 -175 b 139 19 201 -175 139 -124 l 139 276 b 88 338 139 321 124 338 l 33 338 l 33 521 l 88 521 b 139 581 124 521 139 536 l 139 839 b 382 1032 139 982 201 1032 l 475 1032 l 475 856 b 353 765 379 856 353 831 "},"}":{"ha":543,"x_min":0,"x_max":0,"o":"m 533 338 l 481 338 b 428 276 443 338 428 321 l 428 19 b 185 -175 428 -124 365 -175 l 93 -175 l 93 3 b 215 93 188 3 215 28 l 215 261 b 332 428 215 361 244 408 b 215 596 244 449 215 496 l 215 765 b 93 856 215 831 188 856 l 93 1032 l 185 1032 b 428 839 365 1032 428 982 l 428 581 b 481 521 428 536 443 521 l 533 521 "},"[":{"ha":503,"x_min":0,"x_max":0,"o":"m 311 853 l 311 6 l 478 6 l 478 -172 l 97 -172 l 97 1031 l 478 1031 l 478 853 "},"]":{"ha":601,"x_min":0,"x_max":0,"o":"m 504 -172 l 124 -172 l 124 6 l 290 6 l 290 853 l 124 853 l 124 1031 l 504 1031 "},"(":{"ha":481,"x_min":0,"x_max":0,"o":"m 478 1031 b 310 429 376 868 310 656 b 478 -172 310 203 376 -10 l 263 -172 b 85 429 149 -10 85 203 b 263 1031 85 656 149 868 "},")":{"ha":497,"x_min":0,"x_max":0,"o":"m 286 1031 b 463 429 400 868 463 656 b 286 -172 463 203 400 -10 l 71 -172 b 238 429 172 -10 238 203 b 71 1031 238 656 172 868 "},"—":{"ha":900,"x_min":0,"x_max":0,"o":"m 0 301 l 0 453 l 900 453 l 900 301 "},"–":{"ha":565,"x_min":0,"x_max":0,"o":"m 0 301 l 0 453 l 565 453 l 565 301 "},"-":{"ha":519,"x_min":0,"x_max":0,"o":"m 76 350 l 76 501 l 443 501 l 443 350 "},"­":{"ha":519,"x_min":0,"x_max":0,"o":"m 76 350 l 76 501 l 443 501 l 443 350 "},"«":{"ha":697,"x_min":0,"x_max":0,"o":"m 364 114 l 169 114 l 3 369 l 169 625 l 364 625 l 217 369 m 672 114 l 478 114 l 311 369 l 478 625 l 672 625 l 524 369 "},"»":{"ha":706,"x_min":0,"x_max":0,"o":"m 49 625 l 243 625 l 410 369 l 243 114 l 49 114 l 196 369 m 357 625 l 551 625 l 718 369 l 551 114 l 357 114 l 504 369 "},"‹":{"ha":390,"x_min":0,"x_max":0,"o":"m 364 114 l 169 114 l 3 369 l 169 625 l 364 625 l 217 369 "},"›":{"ha":397,"x_min":0,"x_max":0,"o":"m 49 625 l 243 625 l 410 369 l 243 114 l 49 114 l 197 369 "},"„":{"ha":592,"x_min":0,"x_max":0,"o":"m 169 219 b 283 106 231 219 283 179 b 253 14 283 71 271 42 l 151 -133 l 38 -133 l 100 15 b 54 106 68 36 54 69 b 169 219 54 172 103 219 m 426 219 b 540 106 488 219 540 179 b 510 14 540 71 528 42 l 408 -133 l 294 -133 l 357 15 b 311 106 325 36 311 69 b 426 219 311 172 360 219 "},"“":{"ha":547,"x_min":0,"x_max":0,"o":"m 221 829 b 267 739 253 808 267 775 b 151 625 267 672 218 625 b 38 739 90 625 38 665 b 68 831 38 774 50 803 l 169 978 l 283 978 m 478 829 b 524 739 510 808 524 775 b 408 625 524 672 475 625 b 294 739 347 625 294 665 b 325 831 294 774 307 803 l 426 978 l 540 978 "},"”":{"ha":572,"x_min":0,"x_max":0,"o":"m 169 974 b 283 860 231 974 283 933 b 253 768 283 825 271 796 l 151 621 l 38 621 l 100 769 b 54 860 68 790 54 824 b 169 974 54 926 103 974 m 426 974 b 540 860 488 974 540 933 b 510 768 540 825 528 796 l 408 621 l 294 621 l 357 769 b 311 860 325 790 311 824 b 426 974 311 926 360 974 "},"‘":{"ha":335,"x_min":0,"x_max":0,"o":"m 222 829 b 267 739 253 807 267 775 b 151 625 267 672 218 625 b 38 739 90 625 38 665 b 68 831 38 774 50 803 l 169 976 l 283 976 "},"’":{"ha":335,"x_min":0,"x_max":0,"o":"m 169 974 b 283 860 231 974 283 932 b 253 768 283 824 271 794 l 151 621 l 38 621 l 100 768 b 54 858 68 790 54 822 b 169 974 54 926 103 974 "},"‚":{"ha":335,"x_min":0,"x_max":0,"o":"m 169 219 b 283 106 231 219 283 179 b 253 14 283 71 271 42 l 151 -133 l 38 -133 l 100 15 b 54 106 68 36 54 69 b 169 219 54 172 103 219 "}," ":{"ha":322,"x_min":0,"x_max":0,"o":""}," ":{"ha":322,"x_min":0,"x_max":0,"o":""},"ƒ":{"ha":569,"x_min":0,"x_max":0,"o":"m 506 858 b 403 764 450 860 410 822 l 389 647 l 558 647 l 539 493 l 369 493 l 306 -33 b 13 -281 286 -185 176 -282 b -157 -226 -47 -279 -117 -258 l -96 -61 b -15 -93 -74 -81 -40 -93 b 71 1 35 -94 64 -57 l 132 493 l 31 493 l 50 647 l 151 647 l 169 799 b 468 1044 188 949 306 1046 b 672 990 542 1044 622 1024 l 592 826 b 506 858 567 846 533 857 "},"€":{"ha":1086,"x_min":0,"x_max":0,"o":"m 1069 167 b 668 -11 967 60 813 -11 b 181 332 433 -11 244 129 l 39 332 l 39 436 l 160 436 b 157 489 158 453 157 471 b 160 538 157 506 158 522 l 39 538 l 39 642 l 181 642 b 678 981 246 843 438 981 b 1068 817 821 981 972 917 l 926 647 b 681 774 861 725 768 774 b 450 642 581 774 496 722 l 764 642 l 764 538 l 413 538 b 410 492 411 522 410 507 b 414 436 410 472 411 454 l 764 436 l 764 332 l 454 332 b 681 206 501 254 585 206 b 926 319 764 206 857 250 "},"¢":{"ha":776,"x_min":0,"x_max":0,"o":"m 760 165 b 524 1 713 81 631 24 l 524 -214 l 338 -214 l 338 -1 b 33 372 153 31 33 172 b 338 750 33 574 153 717 l 338 971 l 524 971 l 524 747 b 756 589 625 725 706 671 l 583 485 b 432 563 549 533 497 563 b 275 374 339 563 275 486 b 432 183 275 258 339 183 b 585 268 500 183 553 211 "},"¤":{"ha":974,"x_min":0,"x_max":0,"o":"m 850 446 b 799 264 850 379 832 317 l 940 122 l 806 -12 l 663 132 b 486 88 610 104 550 88 b 313 132 424 88 364 104 l 168 -12 l 33 122 l 175 264 b 125 446 143 317 125 379 b 172 622 125 510 142 571 l 33 760 l 168 894 l 306 757 b 486 806 358 788 421 806 b 669 757 553 806 615 788 l 806 894 l 940 760 l 803 622 b 850 446 833 571 850 510 m 486 275 b 663 446 583 275 663 351 b 486 619 663 542 583 619 b 313 446 390 619 313 542 b 486 275 313 351 390 275 "},"$":{"ha":894,"x_min":0,"x_max":0,"o":"m 857 289 b 540 -4 857 117 722 17 l 540 -214 l 357 -214 l 357 1 b 24 147 232 21 113 74 l 119 338 b 471 192 219 250 369 192 b 597 276 549 192 597 221 b 83 690 597 449 83 346 b 357 974 83 839 189 942 l 357 1179 l 540 1179 l 540 981 b 854 875 657 968 771 929 l 761 682 b 450 783 658 742 529 783 b 343 713 386 783 343 760 b 857 289 343 544 857 640 "},"£":{"ha":774,"x_min":0,"x_max":0,"o":"m 751 186 l 751 0 l 39 0 l 39 186 l 144 186 l 144 390 l 39 390 l 39 554 l 144 554 l 144 658 b 475 983 144 865 265 983 b 771 864 588 983 694 940 l 678 683 b 501 776 619 744 558 776 b 393 653 431 776 393 735 l 393 554 l 625 554 l 625 390 l 393 390 l 393 186 "},"¥":{"ha":924,"x_min":0,"x_max":0,"o":"m 842 471 l 842 381 l 633 381 l 599 315 l 599 290 l 842 290 l 842 199 l 599 199 l 599 0 l 353 0 l 353 199 l 96 199 l 96 290 l 353 290 l 353 308 l 314 381 l 96 381 l 96 471 l 265 471 l -7 974 l 240 974 l 475 547 l 704 974 l 951 974 l 682 471 "},"≈":{"ha":708,"x_min":0,"x_max":0,"o":"m 235 733 b 425 664 328 733 381 664 b 471 728 456 664 471 685 l 631 728 b 474 492 631 568 579 492 b 283 561 379 492 329 561 b 239 497 254 561 239 540 l 78 497 b 235 733 78 657 129 733 m 235 414 b 425 344 328 414 381 344 b 471 408 456 344 471 365 l 631 408 b 474 172 631 249 579 172 b 283 242 379 172 329 242 b 239 178 254 242 239 221 l 78 178 b 235 414 78 338 129 414 "},"~":{"ha":708,"x_min":0,"x_max":0,"o":"m 235 572 b 425 501 328 572 381 501 b 471 565 456 501 471 524 l 631 565 b 474 329 631 407 579 329 b 283 400 379 329 329 400 b 239 336 254 400 239 379 l 78 336 b 235 572 78 496 129 572 "},"∙":{"ha":454,"x_min":0,"x_max":0,"o":"m 226 557 b 401 383 329 557 401 485 b 226 207 401 281 329 207 b 53 383 125 207 53 281 b 226 557 53 485 125 557 "},"÷":{"ha":708,"x_min":0,"x_max":0,"o":"m 343 811 b 451 703 407 811 451 767 b 343 596 451 640 407 596 b 235 703 281 596 235 640 b 343 811 235 767 281 811 m 46 378 l 46 529 l 663 529 l 663 378 m 343 315 b 451 207 407 315 451 269 b 343 99 451 144 407 99 b 235 207 281 99 235 144 b 343 315 235 269 281 315 "},"∕":{"ha":490,"x_min":0,"x_max":0,"o":"m -50 -154 l 399 1126 l 600 1126 l 151 -154 "},"=":{"ha":708,"x_min":0,"x_max":0,"o":"m 46 528 l 46 679 l 663 679 l 663 528 m 46 229 l 46 381 l 663 381 l 663 229 "},">":{"ha":708,"x_min":0,"x_max":0,"o":"m 507 461 l 44 646 l 44 814 l 663 557 l 663 364 l 44 107 l 44 276 "},"≥":{"ha":708,"x_min":0,"x_max":0,"o":"m 507 564 l 44 742 l 44 904 l 663 656 l 663 471 l 44 222 l 44 385 m 46 3 l 46 156 l 663 156 l 663 3 "},"∞":{"ha":1186,"x_min":0,"x_max":0,"o":"m 868 713 b 1153 417 1032 713 1153 588 b 868 118 1153 244 1032 118 b 594 289 729 118 654 197 b 317 118 536 197 460 118 b 33 415 154 118 33 244 b 317 713 33 586 154 713 b 590 542 456 713 531 633 b 868 713 650 633 725 713 m 317 279 b 515 418 413 279 467 340 b 317 551 467 492 411 551 b 196 415 247 551 196 493 b 317 279 196 336 247 279 m 868 281 b 990 417 939 281 990 338 b 868 551 990 494 939 551 b 671 414 774 551 719 490 b 868 281 719 339 775 281 "},"∫":{"ha":542,"x_min":0,"x_max":0,"o":"m 535 999 b 458 1014 506 1010 483 1014 b 347 864 378 1014 347 974 b 382 149 347 733 382 294 b 121 -192 382 -97 310 -192 b -28 -156 57 -192 15 -182 l 1 -3 b 92 -28 38 -19 63 -28 b 207 132 174 -28 207 17 b 169 843 207 278 169 708 b 429 1182 169 1088 242 1182 b 560 1151 474 1182 510 1172 "},"<":{"ha":708,"x_min":0,"x_max":0,"o":"m 201 450 l 663 265 l 663 97 l 46 354 l 46 547 l 663 804 l 663 635 "},"≤":{"ha":708,"x_min":0,"x_max":0,"o":"m 201 553 l 663 375 l 663 213 l 46 460 l 46 646 l 663 894 l 663 732 m 46 3 l 46 156 l 663 156 l 663 3 "},"¬":{"ha":803,"x_min":0,"x_max":0,"o":"m 714 190 l 542 190 l 542 440 l 46 440 l 46 592 l 714 592 "},"−":{"ha":708,"x_min":0,"x_max":0,"o":"m 46 378 l 46 529 l 663 529 l 663 378 "},"×":{"ha":708,"x_min":0,"x_max":0,"o":"m 625 289 l 518 182 l 354 347 l 189 182 l 82 289 l 247 454 l 82 618 l 189 725 l 354 561 l 518 725 l 625 618 l 461 454 "},"≠":{"ha":708,"x_min":0,"x_max":0,"o":"m 415 381 l 663 381 l 663 229 l 367 229 l 304 31 l 124 31 l 186 229 l 46 229 l 46 381 l 235 381 l 281 528 l 46 528 l 46 679 l 329 679 l 389 869 l 569 869 l 510 679 l 663 679 l 663 528 l 461 528 "},"∂":{"ha":878,"x_min":0,"x_max":0,"o":"m 382 983 b 821 482 650 983 821 785 b 401 -11 821 178 663 -11 b 39 324 183 -11 39 118 b 361 639 39 514 165 639 b 583 518 471 639 547 590 b 367 792 592 694 515 792 b 151 715 286 792 213 767 l 57 890 b 382 983 144 947 269 983 m 407 458 b 268 325 318 458 268 411 b 411 188 268 236 322 188 b 557 322 511 188 557 250 b 407 458 557 403 503 458 "},"%":{"ha":1421,"x_min":0,"x_max":0,"o":"m 315 976 b 586 683 482 976 586 864 b 315 389 586 501 482 389 b 43 683 149 389 43 501 b 315 976 43 864 149 976 m 942 974 l 1167 974 l 472 0 l 247 0 m 315 849 b 197 683 242 849 197 786 b 315 518 197 581 242 518 b 433 683 389 518 433 581 b 315 849 433 786 389 849 m 1107 583 b 1378 290 1274 583 1378 471 b 1107 -6 1378 108 1274 -6 b 835 290 940 -6 835 108 b 1107 583 835 471 940 583 m 1107 456 b 989 290 1033 456 989 393 b 1107 124 989 186 1033 124 b 1225 290 1181 124 1225 186 b 1107 456 1225 393 1181 456 "},"‰":{"ha":2050,"x_min":0,"x_max":0,"o":"m 315 976 b 586 683 482 976 586 864 b 315 389 586 501 482 389 b 43 683 149 389 43 501 b 315 976 43 864 149 976 m 942 974 l 1167 974 l 472 0 l 247 0 m 315 849 b 197 683 242 849 197 786 b 315 518 197 581 242 518 b 433 683 389 518 433 581 b 315 849 433 786 389 849 m 1107 583 b 1378 290 1274 583 1378 471 b 1107 -6 1378 108 1274 -6 b 835 290 940 -6 835 108 b 1107 583 835 471 940 583 m 1736 583 b 2007 290 1903 583 2007 471 b 1736 -6 2007 108 1903 -6 b 1464 290 1569 -6 1464 108 b 1736 583 1464 471 1569 583 m 1107 456 b 989 290 1033 456 989 393 b 1107 124 989 186 1033 124 b 1225 290 1181 124 1225 186 b 1107 456 1225 393 1181 456 m 1736 456 b 1618 290 1663 456 1618 393 b 1736 124 1618 186 1663 124 b 1854 290 1810 124 1854 186 b 1736 456 1854 393 1810 456 "},"+":{"ha":708,"x_min":0,"x_max":0,"o":"m 429 378 l 429 144 l 278 144 l 278 378 l 46 378 l 46 529 l 278 529 l 278 763 l 429 763 l 429 529 l 663 529 l 663 378 "},"±":{"ha":708,"x_min":0,"x_max":0,"o":"m 663 483 l 429 483 l 429 260 l 278 260 l 278 483 l 46 483 l 46 629 l 278 629 l 278 854 l 429 854 l 429 629 l 663 629 m 663 156 l 663 3 l 46 3 l 46 156 "},"∏":{"ha":1031,"x_min":0,"x_max":0,"o":"m 693 -269 l 693 842 l 338 842 l 338 -269 l 97 -269 l 97 1031 l 933 1031 l 933 -269 "},"√":{"ha":983,"x_min":0,"x_max":0,"o":"m 497 21 l 771 1036 l 1000 1036 l 624 -218 l 368 -218 l 178 379 l 3 379 l 3 567 l 342 567 "},"∑":{"ha":856,"x_min":0,"x_max":0,"o":"m 338 828 l 667 421 l 336 15 l 847 15 l 847 -192 l 38 -192 l 38 -19 l 404 421 l 53 858 l 53 1033 l 833 1033 l 833 828 "},"◊":{"ha":706,"x_min":0,"x_max":0,"o":"m 351 -19 l 35 458 l 353 932 l 671 458 m 351 243 l 497 458 l 353 672 l 208 458 "},"&":{"ha":951,"x_min":0,"x_max":0,"o":"m 683 92 b 407 -11 603 25 507 -11 b 76 272 217 -11 76 107 b 269 532 76 403 167 475 b 188 750 211 615 188 681 b 465 983 188 892 296 983 b 743 765 629 983 743 893 b 514 499 743 629 631 558 b 668 339 556 453 606 400 b 733 494 694 385 717 438 l 886 386 b 797 214 863 322 832 264 l 942 76 l 821 -42 m 375 750 b 425 613 375 710 390 665 b 556 764 499 653 556 697 b 468 849 556 814 521 849 b 375 750 410 849 375 807 m 417 157 b 561 211 467 157 517 176 b 363 417 481 292 414 358 b 272 289 310 382 272 343 b 417 157 272 210 335 157 "},"^":{"ha":799,"x_min":0,"x_max":0,"o":"m 399 593 l 214 192 l 44 192 l 303 729 l 496 729 l 753 192 l 583 192 "},"@":{"ha":1274,"x_min":0,"x_max":0,"o":"m 646 972 b 1240 381 986 972 1240 722 b 974 39 1240 174 1129 39 b 811 147 890 39 829 72 l 808 165 b 599 54 754 88 678 54 b 296 375 443 54 296 182 b 581 701 296 553 407 701 b 769 613 692 701 763 628 l 769 686 l 939 686 l 939 218 b 990 150 939 168 960 150 b 1106 376 1049 150 1106 243 b 646 847 1106 642 935 847 b 169 372 382 847 169 636 b 628 -81 169 111 368 -81 b 890 4 708 -81 813 -54 l 954 -107 b 628 -207 872 -168 735 -207 b 33 372 290 -207 33 40 b 646 972 33 710 304 972 m 615 547 b 481 382 535 547 481 472 b 617 206 481 288 533 206 b 758 381 706 206 758 285 b 615 547 758 472 704 547 "},"|":{"ha":415,"x_min":0,"x_max":0,"o":"m 118 -153 l 118 1115 l 297 1115 l 297 -153 "},"¦":{"ha":415,"x_min":0,"x_max":0,"o":"m 118 640 l 118 1115 l 297 1115 l 297 640 m 118 -153 l 118 324 l 297 324 l 297 -153 "},"©":{"ha":1007,"x_min":0,"x_max":0,"o":"m 504 957 b 974 486 768 957 974 744 b 501 13 974 229 767 13 b 33 483 238 13 33 226 b 504 957 33 740 239 957 m 504 846 b 144 483 300 846 144 681 b 501 124 144 286 299 124 b 864 486 706 124 864 289 b 504 846 864 683 707 846 m 513 715 b 696 639 579 715 650 686 l 629 560 b 515 618 599 596 556 618 b 386 488 442 618 386 561 b 515 353 386 411 442 353 b 629 406 553 353 597 374 l 696 335 b 508 251 647 283 576 251 b 269 485 372 251 269 351 b 513 715 269 617 374 715 "},"†":{"ha":797,"x_min":0,"x_max":0,"o":"m 772 686 l 772 492 l 513 492 l 513 -260 l 276 -260 l 276 492 l 25 492 l 25 686 l 276 686 l 276 971 l 513 971 l 513 686 "},"‡":{"ha":797,"x_min":0,"x_max":0,"o":"m 513 238 l 772 238 l 772 43 l 513 43 l 513 -260 l 276 -260 l 276 43 l 25 43 l 25 238 l 276 238 l 276 492 l 25 492 l 25 686 l 276 686 l 276 971 l 513 971 l 513 686 l 772 686 l 772 492 l 513 492 "},"°":{"ha":519,"x_min":0,"x_max":0,"o":"m 281 1135 b 446 971 372 1135 446 1061 b 281 807 446 881 372 807 b 115 971 190 807 115 881 b 281 1135 115 1061 190 1135 m 281 1042 b 208 971 242 1042 208 1010 b 281 900 208 932 242 900 b 353 971 321 900 353 932 b 281 1042 353 1010 321 1042 "},"℮":{"ha":1124,"x_min":0,"x_max":0,"o":"m 274 433 b 267 428 269 433 267 432 l 267 200 b 278 174 267 189 272 181 b 564 50 349 97 451 50 b 863 188 683 50 792 104 l 931 188 b 563 25 847 90 711 25 b 97 443 306 25 97 213 b 563 863 97 675 306 863 b 1028 443 819 863 1028 675 l 1028 433 m 858 692 b 846 719 858 703 853 713 b 564 838 774 792 674 838 b 279 715 451 838 351 790 b 267 688 272 708 267 699 l 267 463 b 274 456 267 458 269 456 l 851 456 b 858 463 856 456 858 458 "},"ℓ":{"ha":657,"x_min":0,"x_max":0,"o":"m 449 985 b 617 797 553 985 617 915 b 288 306 617 588 422 418 b 361 150 269 196 297 150 b 531 260 431 150 486 206 l 601 175 b 310 -8 518 44 415 -8 b 111 203 179 -8 121 72 l 46 161 l 13 260 l 128 340 l 182 674 b 449 985 221 889 326 985 m 443 860 b 351 694 407 860 372 815 l 315 476 b 485 793 397 558 485 683 b 443 860 485 835 469 860 "},"¶":{"ha":903,"x_min":0,"x_max":0,"o":"m 626 -149 l 626 896 l 488 896 l 488 -149 l 310 -149 l 310 451 l 272 451 b -8 735 49 451 -8 624 b 329 1031 -8 885 85 1031 l 806 1031 l 806 -149 "},"®":{"ha":1007,"x_min":0,"x_max":0,"o":"m 504 957 b 974 486 768 957 974 744 b 501 13 974 229 767 13 b 33 483 238 13 33 226 b 504 957 33 740 239 957 m 501 124 b 864 486 706 124 864 289 b 504 846 864 683 707 846 b 144 483 300 846 144 681 b 501 124 144 286 299 124 m 701 568 b 621 424 701 500 672 450 l 715 278 l 589 278 l 522 403 l 517 403 l 435 403 l 435 278 l 325 278 l 325 722 l 517 722 b 701 568 635 722 701 667 m 517 489 b 596 564 567 489 596 517 b 517 638 596 611 567 638 l 435 638 l 435 489 "},"§":{"ha":757,"x_min":0,"x_max":0,"o":"m 392 964 b 701 879 494 964 600 936 l 629 732 b 394 806 533 782 451 806 b 306 753 338 806 306 785 b 722 426 306 638 722 678 b 585 242 722 344 667 275 b 675 100 646 206 675 172 b 363 -122 675 -29 554 -122 b 22 -15 242 -122 119 -85 l 90 133 b 357 39 182 71 276 39 b 454 93 418 39 454 63 b 44 417 454 206 44 168 b 190 600 44 503 99 567 b 90 743 113 642 90 682 b 392 964 90 872 207 964 m 360 490 b 258 432 293 490 258 468 b 399 356 258 386 319 356 b 501 414 468 356 501 379 b 360 490 501 460 439 490 "},"™":{"ha":1256,"x_min":0,"x_max":0,"o":"m 317 833 l 317 389 l 143 389 l 143 833 l -11 833 l -11 974 l 472 974 l 472 833 m 1043 389 l 1043 729 l 924 446 l 807 446 l 688 729 l 688 389 l 532 389 l 532 974 l 722 974 l 865 653 l 1008 974 l 1199 974 l 1199 389 "},"´":{"ha":486,"x_min":0,"x_max":0,"o":"m 244 833 l 61 833 l 208 1067 l 425 990 "},"˘":{"ha":486,"x_min":0,"x_max":0,"o":"m 471 1054 b 243 835 464 921 374 835 b 15 1054 113 835 22 921 l 165 1054 b 243 974 169 1007 200 974 b 321 1054 286 974 317 1007 "},"ˇ":{"ha":486,"x_min":0,"x_max":0,"o":"m 158 1058 l 243 931 l 328 1058 l 515 1058 l 347 831 l 139 831 l -29 1058 "},"¸":{"ha":486,"x_min":0,"x_max":0,"o":"m 301 -71 b 396 -183 358 -86 396 -126 b 222 -326 396 -271 324 -326 b 90 -283 179 -326 129 -310 l 135 -185 b 203 -212 153 -201 179 -212 b 261 -161 239 -212 261 -189 b 197 -111 261 -133 239 -111 b 147 -117 183 -111 164 -114 l 213 19 l 347 19 "},"ˆ":{"ha":486,"x_min":0,"x_max":0,"o":"m 324 849 l 243 967 l 163 849 l -10 849 l 147 1058 l 339 1058 l 496 849 "},"¨":{"ha":511,"x_min":0,"x_max":0,"o":"m 110 1069 b 217 961 172 1069 217 1024 b 110 853 217 897 172 853 b 1 961 46 853 1 897 b 110 1069 1 1024 46 1069 m 378 1069 b 486 961 440 1069 486 1024 b 378 853 486 897 440 853 b 269 961 314 853 269 897 b 378 1069 269 1024 314 1069 "},"˙":{"ha":486,"x_min":0,"x_max":0,"o":"m 243 1090 b 369 964 317 1090 369 1038 b 243 836 369 889 317 836 b 117 964 169 836 117 889 b 243 1090 117 1038 169 1090 "},"`":{"ha":486,"x_min":0,"x_max":0,"o":"m 238 833 l 57 990 l 274 1067 l 421 833 "},"˝":{"ha":486,"x_min":0,"x_max":0,"o":"m 133 833 l -42 833 l 76 1071 l 258 1004 m 403 833 l 228 833 l 346 1071 l 528 1004 "},"¯":{"ha":486,"x_min":0,"x_max":0,"o":"m 50 878 l 50 1039 l 436 1039 l 436 878 "},"˛":{"ha":486,"x_min":0,"x_max":0,"o":"m 308 25 b 229 -128 258 -43 229 -96 b 260 -161 229 -150 243 -161 b 319 -118 281 -161 301 -144 l 381 -189 b 231 -282 346 -249 292 -282 b 108 -167 175 -282 108 -253 b 192 25 108 -104 144 -39 "},"˚":{"ha":486,"x_min":0,"x_max":0,"o":"m 243 1131 b 411 964 336 1131 411 1056 b 243 797 411 872 336 797 b 75 964 150 797 75 872 b 243 1131 75 1056 150 1131 m 243 1036 b 169 964 203 1036 169 1003 b 243 892 169 924 203 892 b 317 964 283 892 317 924 b 243 1036 317 1003 283 1036 "},"˜":{"ha":486,"x_min":0,"x_max":0,"o":"m 142 1079 b 301 1014 224 1079 263 1014 b 344 1072 331 1014 344 1033 l 490 1072 b 346 857 490 926 443 857 b 185 922 261 857 225 922 b 143 863 157 922 143 903 l -4 863 b 142 1079 -4 1008 44 1079 "},"̦":{"ha":0,"x_min":0,"x_max":0,"o":"m 169 -57 b 283 -171 231 -57 283 -97 b 253 -262 283 -206 271 -236 l 151 -410 l 38 -410 l 100 -262 b 54 -172 68 -240 54 -208 b 169 -57 54 -104 103 -57 "},"ˉ":{"ha":486,"x_min":0,"x_max":0,"o":"m 50 878 l 50 1039 l 436 1039 l 436 878 "}}}
